<?xml version="1.0" encoding="UTF-8"?>
<svg version="1.1" xmlns="http://www.w3.org/2000/svg" width="500" height="500">
<path d="M0 0 C0.69687436 -0.00311998 1.39374871 -0.00623996 2.11174047 -0.00945449 C4.45904902 -0.01746428 6.80610115 -0.01109898 9.15341187 -0.00482178 C10.83215995 -0.00753067 12.51090685 -0.01109102 14.18965149 -0.01544189 C18.76280499 -0.02459013 23.33586861 -0.02100908 27.90902376 -0.01468372 C32.70218939 -0.00962463 37.49534726 -0.01431601 42.28851318 -0.01745605 C50.35400776 -0.02110088 58.4194658 -0.01628823 66.48495483 -0.0067749 C75.77666135 0.00405906 85.06827975 0.00062319 94.35998404 -0.01042771 C102.35087412 -0.01954778 110.34173786 -0.02076138 118.33263147 -0.01555037 C123.09842325 -0.01244982 127.86417387 -0.01196711 132.62996292 -0.01862335 C137.12629042 -0.02446316 141.62250646 -0.02028048 146.1188221 -0.00883484 C147.75690973 -0.00622108 149.39500696 -0.00689602 151.03309059 -0.01136017 C183.91126557 -0.0925938 212.23160384 7.83613566 238.29940796 28.25396729 C239.35128296 29.03771729 240.40315796 29.82146729 241.48690796 30.62896729 C259.47760435 47.42028391 269.9699501 70.804913 271.29940796 95.25396729 C272.06673565 118.36680749 269.01880808 141.0257739 253.81503296 159.41412354 C252.13770185 161.38721961 252.13770185 161.38721961 250.29940796 164.25396729 C249.63940796 164.25396729 248.97940796 164.25396729 248.29940796 164.25396729 C248.29940796 164.91396729 248.29940796 165.57396729 248.29940796 166.25396729 C247.63940796 166.25396729 246.97940796 166.25396729 246.29940796 166.25396729 C245.96940796 167.24396729 245.63940796 168.23396729 245.29940796 169.25396729 C243.80892944 170.60430908 243.80892944 170.60430908 241.92050171 171.95318604 C241.24696655 172.43980713 240.5734314 172.92642822 239.87948608 173.42779541 C239.1724353 173.92730713 238.46538452 174.42681885 237.73690796 174.94146729 C237.02598999 175.45258057 236.31507202 175.96369385 235.58261108 176.49029541 C233.82631698 177.75152675 232.0634716 179.00362615 230.29940796 180.25396729 C231.08420532 180.65337524 231.08420532 180.65337524 231.88485718 181.06085205 C253.76620638 192.24705994 253.76620638 192.24705994 259.29940796 197.25396729 C259.29940796 197.91396729 259.29940796 198.57396729 259.29940796 199.25396729 C260.13472046 199.59427979 260.13472046 199.59427979 260.98690796 199.94146729 C263.96100383 201.62946765 266.01949661 203.72073245 268.29940796 206.25396729 C268.29940796 206.91396729 268.29940796 207.57396729 268.29940796 208.25396729 C268.95940796 208.25396729 269.61940796 208.25396729 270.29940796 208.25396729 C276.29845884 215.07446497 280.29396917 222.82436133 283.67440796 231.19146729 C283.99554565 231.97618408 284.31668335 232.76090088 284.64755249 233.56939697 C289.30651886 245.6507483 290.83753464 257.61248212 290.73690796 270.50396729 C290.73419891 271.17828796 290.73148987 271.85260864 290.72869873 272.54736328 C290.66173008 283.57551915 289.65849309 293.73617613 286.29940796 304.25396729 C285.9371814 305.41283447 285.57495483 306.57170166 285.20175171 307.76568604 C279.00948943 325.50284409 266.24771244 343.04705242 250.29940796 353.25396729 C249.63940796 353.25396729 248.97940796 353.25396729 248.29940796 353.25396729 C248.29940796 353.91396729 248.29940796 354.57396729 248.29940796 355.25396729 C234.92145081 365.3742183 217.57394431 369.76492055 201.29940796 372.25396729 C200.57727773 372.42696067 199.8551475 372.59995405 199.11113453 372.77818966 C195.39970639 373.40620751 191.7430808 373.38831682 187.99147034 373.3742218 C187.15823708 373.37507623 186.32500383 373.37593065 185.46652108 373.37681097 C182.67666393 373.37845707 179.88686699 373.37295861 177.09701538 373.36749268 C175.09630332 373.36721059 173.09559115 373.36736896 171.09487915 373.36793518 C165.66352121 373.36822232 160.23218532 373.36233898 154.80083251 373.35536122 C149.12468436 373.34911389 143.44853571 373.34852279 137.77238464 373.34733582 C127.0238002 373.34422658 116.27522592 373.33601866 105.52664596 373.32598633 C93.28976298 373.31481256 81.05287952 373.30931155 68.81599271 373.30429089 C43.64379216 373.29383573 18.47160063 373.27624415 -6.70059204 373.25396729 C-6.70059204 372.59396729 -6.70059204 371.93396729 -6.70059204 371.25396729 C-7.36059204 371.25396729 -8.02059204 371.25396729 -8.70059204 371.25396729 C-8.7463263 324.27959676 -8.78158926 277.30522859 -8.8027227 230.33084021 C-8.80522424 224.79056743 -8.80781288 219.25029469 -8.81045532 213.71002197 C-8.81097994 212.60700974 -8.81150456 211.50399751 -8.81204508 210.36756067 C-8.82075804 192.48572609 -8.83653288 174.6039043 -8.85489763 156.72207732 C-8.87357196 138.38648726 -8.88470353 120.05090392 -8.88876903 101.71530473 C-8.89151923 90.3927149 -8.90021898 79.07016124 -8.91642497 67.74758254 C-8.92696143 59.99315666 -8.93020028 52.2387496 -8.9275948 44.48431708 C-8.92630827 40.00415495 -8.92834033 35.52405624 -8.93900299 31.04390526 C-8.9486801 26.94816401 -8.94926335 22.85252928 -8.94238983 18.75678329 C-8.94153934 17.26954141 -8.94412323 15.7822931 -8.95035841 14.29506405 C-8.95830289 12.28434892 -8.95289769 10.27359393 -8.9466877 8.2628727 C-8.94744714 7.14269772 -8.94820658 6.02252275 -8.94898903 4.86840308 C-8.41482211 -0.75382732 -4.73130418 0.00284697 0 0 Z M48.29940796 66.25396729 C47.91267482 68.93198041 47.77090225 71.19666261 47.81166077 73.87168884 C47.8075375 74.64307042 47.80341424 75.41445201 47.79916602 76.20920879 C47.79022833 78.79699815 47.80990579 81.38377703 47.82943726 83.97149658 C47.82892849 85.82625451 47.82667297 87.68101265 47.82279968 89.5357666 C47.81737027 94.58004268 47.83682738 99.62395276 47.86090064 104.66816306 C47.88220116 109.95731705 47.8816027 115.24646972 47.8835907 120.53565979 C47.89004532 129.43246747 47.91130478 138.32913806 47.94271851 147.22589111 C47.98283792 158.60228985 48.00038375 169.97859874 48.01002789 181.35505962 C48.01837626 191.17077349 48.03560566 200.98646878 48.05506539 210.80216622 C48.05909943 212.89929026 48.06284121 214.99641487 48.06628776 217.09353995 C48.07616755 223.08959963 48.09083843 229.08560752 48.11312675 235.08163452 C48.11917415 236.88861946 48.12366511 238.69561049 48.12636948 240.50260353 C48.16720617 265.47997224 49.00096518 287.15590992 64.29940796 308.25396729 C64.95940796 308.25396729 65.61940796 308.25396729 66.29940796 308.25396729 C66.52628296 308.81084229 66.75315796 309.36771729 66.98690796 309.94146729 C68.67490832 312.91556316 70.76617313 314.97405594 73.29940796 317.25396729 C73.95940796 317.25396729 74.61940796 317.25396729 75.29940796 317.25396729 C75.29940796 317.91396729 75.29940796 318.57396729 75.29940796 319.25396729 C75.95940796 319.25396729 76.61940796 319.25396729 77.29940796 319.25396729 C77.56753296 319.89334229 77.83565796 320.53271729 78.11190796 321.19146729 C79.18608548 323.58528415 79.18608548 323.58528415 82.29940796 324.25396729 C82.29940796 324.91396729 82.29940796 325.57396729 82.29940796 326.25396729 C82.95940796 326.25396729 83.61940796 326.25396729 84.29940796 326.25396729 C84.57913452 326.82373291 84.85886108 327.39349854 85.14706421 327.98052979 C85.89241182 329.4510122 86.66941137 330.90605251 87.48300171 332.33990479 C90.84834149 338.48348457 92.39216796 344.36749099 93.62362671 351.25006104 C94.1466482 354.41326182 94.1466482 354.41326182 96.29940796 357.25396729 C98.81328913 357.54062816 101.08015709 357.63259351 103.59481812 357.59454346 C104.3461351 357.59498154 105.09745209 357.59541962 105.87153625 357.59587097 C108.36077653 357.59377697 110.84934751 357.57041791 113.33847046 357.54693604 C115.06196728 357.54134224 116.78546887 357.53707112 118.50897217 357.53407288 C123.04978559 357.52260704 127.59031208 357.49312509 132.13101196 357.45996094 C136.7626253 357.42929738 141.39428492 357.4155755 146.02597046 357.40045166 C155.1172425 357.36825691 164.20830139 357.31703972 173.29940796 357.25396729 C175.0429793 353.95962758 175.69913659 351.27649376 176.17440796 347.56646729 C178.05533869 335.73526938 183.70794525 326.52022691 193.29940796 319.25396729 C193.29940796 318.59396729 193.29940796 317.93396729 193.29940796 317.25396729 C193.95940796 317.25396729 194.61940796 317.25396729 195.29940796 317.25396729 C195.29940796 316.59396729 195.29940796 315.93396729 195.29940796 315.25396729 C195.86143921 315.03740479 196.42347046 314.82084229 197.00253296 314.59771729 C200.06977561 312.80327601 201.82601368 310.51504515 204.04940796 307.75396729 C204.84862671 306.77427979 205.64784546 305.79459229 206.47128296 304.78521729 C208.49457148 302.50413783 208.49457148 302.50413783 208.29940796 300.25396729 C208.95940796 300.25396729 209.61940796 300.25396729 210.29940796 300.25396729 C215.13741173 291.41301246 218.56254918 283.28606357 220.29940796 273.25396729 C220.63972046 271.49052979 220.63972046 271.49052979 220.98690796 269.69146729 C222.51926852 252.83550109 219.46387838 237.55948209 210.29940796 223.25396729 C209.87272827 222.53209229 209.44604858 221.81021729 209.00643921 221.06646729 C199.40711453 206.416421 181.20103407 198.79083922 165.29940796 193.25396729 C164.30940796 193.25396729 163.31940796 193.25396729 162.29940796 193.25396729 C162.29940796 192.59396729 162.29940796 191.93396729 162.29940796 191.25396729 C161.63940796 191.25396729 160.97940796 191.25396729 160.29940796 191.25396729 C160.29940796 184.98396729 160.29940796 178.71396729 160.29940796 172.25396729 C160.95940796 172.25396729 161.61940796 172.25396729 162.29940796 172.25396729 C162.29940796 171.59396729 162.29940796 170.93396729 162.29940796 170.25396729 C163.02386108 170.13537354 163.74831421 170.01677979 164.49472046 169.89459229 C171.78537258 168.22931798 178.52614679 163.89767736 184.29940796 159.25396729 C184.29940796 158.59396729 184.29940796 157.93396729 184.29940796 157.25396729 C184.87819702 157.02451416 185.45698608 156.79506104 186.05331421 156.55865479 C194.04988189 151.91369199 198.6236643 140.70368409 201.29940796 132.25396729 C204.940304 117.08039006 204.01828065 102.03766852 196.29940796 88.25396729 C190.20220131 78.85143282 182.40966024 70.9955887 171.86190796 67.00396729 C171.23220093 66.74873291 170.6024939 66.49349854 169.95370483 66.23052979 C162.39273095 63.27763145 154.9281593 63.08649733 146.92953491 62.98516846 C145.91081299 62.96884369 144.89209106 62.95251892 143.84249878 62.93569946 C140.49094932 62.88391975 137.13936713 62.83955176 133.78768921 62.79693604 C132.64068228 62.78182795 131.49367535 62.76671986 130.31191063 62.75115395 C124.25140401 62.67223577 118.19085653 62.59959301 112.13021851 62.53155518 C105.86520539 62.45981294 99.60076417 62.36481652 93.33614826 62.264781 C88.5193739 62.19227669 83.70251501 62.13756479 78.88545799 62.0877018 C76.574862 62.06057842 74.26433609 62.0265974 71.95394325 61.98567772 C68.72954952 61.93013928 65.50585808 61.89985884 62.28109741 61.87579346 C61.32464828 61.85363266 60.36819916 61.83147186 59.38276672 61.80863953 C58.50389801 61.80716919 57.6250293 61.80569885 56.7195282 61.80418396 C55.95800099 61.79442126 55.19647379 61.78465857 54.41187 61.77460003 C51.26759807 62.48810918 50.1707429 63.64254839 48.29940796 66.25396729 Z " fill="#FCFDFE" transform="translate(124.70059204101563,41.74603271484375)"/>
<path d="M0 0 C0.66 -0.03351563 1.32 -0.06703125 2 -0.1015625 C5.35716937 1.11803418 6.31022872 3.58116651 8 6.625 C8.37468995 9.32457678 8.53934555 11.60679819 8.50170898 14.29516602 C8.50711197 15.03903564 8.51251495 15.78290527 8.51808167 16.54931641 C8.53052583 18.99292551 8.51410946 21.43534651 8.49609375 23.87890625 C8.49624882 25.58471234 8.49773918 27.29051878 8.50050354 28.99632263 C8.50188554 32.56468351 8.48936182 36.13264148 8.46655273 39.70092773 C8.43814695 44.26967667 8.44091386 48.83775759 8.45364285 53.40655613 C8.46060428 56.92650538 8.45280582 60.44630079 8.44038582 63.96623039 C8.43587735 65.65069933 8.43552923 67.33518482 8.43945122 69.01965523 C8.44236861 71.37485638 8.42583304 73.72914307 8.40405273 76.08422852 C8.40855438 76.77683273 8.41305603 77.46943695 8.41769409 78.18302917 C8.35179292 82.48184954 7.62096255 85.19885664 5 88.625 C1.87139505 90.18930248 -0.55602925 89.98127284 -4 89.625 C-7.02620291 86.82121669 -7.92980276 85.12410936 -8.50793457 81.01353455 C-8.53155549 79.60158348 -8.53337443 78.1891599 -8.51757812 76.77709961 C-8.5245874 76.002509 -8.53159668 75.2279184 -8.53881836 74.42985535 C-8.55637238 71.87864965 -8.54478663 69.32856001 -8.53125 66.77734375 C-8.5339454 65.00045052 -8.53782822 63.22355872 -8.54284668 61.44667053 C-8.54873796 57.72691777 -8.54018983 54.00754977 -8.52148438 50.2878418 C-8.49867824 45.52044324 -8.51183048 40.75394461 -8.53577423 35.98657894 C-8.55022815 32.31910927 -8.54562841 28.65185301 -8.53526306 24.98437691 C-8.5325955 23.2265061 -8.53586657 21.4686159 -8.54518127 19.71076775 C-8.5553423 17.25449146 -8.5398544 14.79967352 -8.51757812 12.34350586 C-8.52567505 11.61768311 -8.53377197 10.89186035 -8.54211426 10.14404297 C-8.48434052 6.70503515 -8.23635798 4.92795988 -6.09265137 2.18019104 C-3.84931872 0.51301853 -2.76504097 0.03240282 0 0 Z " fill="#EEF5FA" transform="translate(260,299.375)"/>
<path d="M0 0 C0.97147224 -0.00306656 0.97147224 -0.00306656 1.96257019 -0.00619507 C4.09708165 -0.00919588 6.23081509 0.00925307 8.36523438 0.02832031 C9.85208953 0.03137956 11.33894755 0.03325442 12.82580566 0.03399658 C15.93948363 0.03859537 19.05290235 0.05300401 22.16650391 0.07519531 C26.15456096 0.10347724 30.14241401 0.11440753 34.13056183 0.11887741 C37.20007358 0.12303769 40.26954427 0.13286026 43.33903503 0.1447525 C44.80941949 0.15044342 46.27980784 0.15520599 47.75019836 0.15901947 C49.80619195 0.16590728 51.86202637 0.17955154 53.91796875 0.1953125 C55.08726929 0.2021405 56.25656982 0.20896851 57.46130371 0.21600342 C62.12311799 0.43441028 62.12311799 0.43441028 64.45898438 1.35644531 C66.94735403 5.08899979 67.00124989 6.94085466 66.45898438 11.35644531 C63.80158604 14.11806931 62.11542483 15.24916432 58.30981445 15.87110901 C56.53707153 15.88040688 56.53707153 15.88040688 54.72851562 15.88989258 C54.07257416 15.89850815 53.41663269 15.90712372 52.74081421 15.91600037 C50.58396349 15.93860582 48.42841774 15.93193324 46.27148438 15.92285156 C44.76602799 15.92808931 43.2605749 15.93436634 41.75512695 15.94163513 C38.60449752 15.95202897 35.45432004 15.9474925 32.30371094 15.93286133 C28.27157216 15.91566649 24.24085748 15.93918054 20.20887756 15.97435093 C17.10150764 15.99633866 13.99447788 15.99488046 10.88705444 15.98658562 C9.40073076 15.98576698 7.91438189 15.99261369 6.4281311 16.00735664 C4.34768765 16.02483247 2.26979517 16.01024213 0.18945312 15.98754883 C-0.99237549 15.98658707 -2.1742041 15.98562531 -3.3918457 15.9846344 C-7.49068561 15.16700735 -9.00906781 13.62232196 -11.54101562 10.35644531 C-11.60351562 6.73144531 -11.60351562 6.73144531 -10.54101562 3.35644531 C-7.26996933 0.02409249 -4.54755964 -0.01417832 0 0 Z " fill="#FCFDFE" transform="translate(231.541015625,425.6435546875)"/>
<path d="M0 0 C4.27267699 1.51917404 4.27267699 1.51917404 5.8125 4 C6.25492648 7.46567407 6.19915268 9.33214537 4.4375 12.375 C3.90125 12.91125 3.365 13.4475 2.8125 14 C2.1525 14 1.4925 14 0.8125 14 C0.58820313 14.55171875 0.36390625 15.1034375 0.1328125 15.671875 C-1.59135183 18.71211744 -3.81265822 20.81425673 -6.3125 23.25 C-7.22257812 24.14203125 -8.13265625 25.0340625 -9.0703125 25.953125 C-9.76898438 26.62859375 -10.46765625 27.3040625 -11.1875 28 C-7.99236733 31.74064313 -4.78866884 35.47357345 -1.5625 39.1875 C-0.69044922 40.19683594 -0.69044922 40.19683594 0.19921875 41.2265625 C1.86557479 43.13555279 1.86557479 43.13555279 4.25 45.0625 C5.8125 47 5.8125 47 6.375 50.5625 C5.8125 54 5.8125 54 3.75 56.0625 C0.68994436 57.0391135 -1.04012166 57.0515635 -4.08959961 56.09887695 C-8.99708356 53.52834451 -12.65429148 49.02546623 -16.4375 45.0625 C-17.78328125 43.68288086 -17.78328125 43.68288086 -19.15625 42.27539062 C-20.81731478 40.57080993 -22.47318478 38.86114018 -24.12207031 37.14477539 C-25.35928472 35.86003206 -26.62447835 34.60020742 -27.94042969 33.39624023 C-29.1875 32 -29.1875 32 -29.5625 29.0625 C-29.15483067 25.7332005 -28.53842534 24.35092534 -26.1875 22 C-25.5275 22 -24.8675 22 -24.1875 22 C-24.1875 21.34 -24.1875 20.68 -24.1875 20 C-22.47265625 18.34375 -22.47265625 18.34375 -20.25 16.5 C-17.26704821 14.11073001 -17.26704821 14.11073001 -15.1875 11 C-14.5275 11 -13.8675 11 -13.1875 11 C-13.1875 10.34 -13.1875 9.68 -13.1875 9 C-12.5275 9 -11.8675 9 -11.1875 9 C-10.878125 8.1646875 -10.878125 8.1646875 -10.5625 7.3125 C-8.012888 3.02451618 -5.13689368 0 0 0 Z " fill="#EDF6FA" transform="translate(225.1875,135)"/>
<path d="M0 0 C3.94011441 1.18012796 6.18201793 3.25073912 8.97973633 6.12402344 C9.50158005 6.6434552 10.02342377 7.16288696 10.56108093 7.69805908 C11.65698942 8.7949436 12.74673124 9.89802018 13.83056641 11.00683594 C15.48809184 12.69871549 17.1683379 14.36524042 18.8527832 16.03027344 C19.91737376 17.10176177 20.98057394 18.17463371 22.04223633 19.24902344 C22.54322342 19.74505066 23.04421051 20.24107788 23.56037903 20.75213623 C26.39876362 23.68801347 27.93939586 25.8234051 28.17895508 29.95214844 C27.13176965 32.91917381 25.59249727 34.94086328 23.17895508 36.95214844 C22.51895508 36.95214844 21.85895508 36.95214844 21.17895508 36.95214844 C21.17895508 37.61214844 21.17895508 38.27214844 21.17895508 38.95214844 C19.53442383 40.53808594 19.53442383 40.53808594 17.36645508 42.32714844 C15.11644651 44.18781126 13.27545222 45.82087547 11.54223633 48.17871094 C10.86741211 49.0565625 10.86741211 49.0565625 10.17895508 49.95214844 C9.51895508 49.95214844 8.85895508 49.95214844 8.17895508 49.95214844 C8.17895508 50.61214844 8.17895508 51.27214844 8.17895508 51.95214844 C7.51895508 51.95214844 6.85895508 51.95214844 6.17895508 51.95214844 C5.84895508 52.94214844 5.51895508 53.93214844 5.17895508 54.95214844 C1.37084409 56.56327232 -0.75252252 57.34703715 -4.69604492 55.88964844 C-6.82104492 53.95214844 -6.82104492 53.95214844 -7.82104492 51.57714844 C-7.82104492 46.8491519 -4.92031212 43.93114779 -1.71948242 40.72558594 C-0.54995228 39.58766471 0.62465968 38.45494622 1.80395508 37.32714844 C2.98823879 36.19391144 4.16813729 35.05606902 5.34301758 33.91308594 C5.86331543 33.41599121 6.38361328 32.91889648 6.91967773 32.40673828 C8.42251841 30.85788435 8.42251841 30.85788435 9.17895508 27.95214844 C7.95605266 26.0143197 7.95605266 26.0143197 6.11645508 24.13964844 C5.47450195 23.4396875 4.83254883 22.73972656 4.17114258 22.01855469 C2.39041754 20.17148891 0.57950962 18.36683313 -1.25854492 16.57714844 C-3.82104492 13.95214844 -3.82104492 13.95214844 -3.82104492 11.95214844 C-4.81104492 11.62214844 -5.80104492 11.29214844 -6.82104492 10.95214844 C-7.63354492 8.26464844 -7.63354492 8.26464844 -7.82104492 4.95214844 C-5.45392772 1.58079969 -4.24057968 -0.07193021 0 0 Z " fill="#E9F5FB" transform="translate(277.821044921875,135.0478515625)"/>
<path d="M0 0 C1.875 1.0625 1.875 1.0625 3 3 C3.67314917 9.84245039 2.13352267 13.46138684 -1.5625 19.125 C-2.48833318 20.61082217 -3.41016296 22.09914583 -4.328125 23.58984375 C-4.78380859 24.32702637 -5.23949219 25.06420898 -5.70898438 25.82373047 C-8.21655986 30.05075919 -10.25831504 34.49792559 -12.33203125 38.94921875 C-14.73948745 43.35255198 -17.10436204 47.32862822 -22 49.0625 C-25.5685736 48.98815472 -27.19658997 48.16263059 -30 46 C-31.49297212 43.01405576 -31.11755228 40.29146376 -31 37 C-30.67 36.34 -30.34 35.68 -30 35 C-29.34 35 -28.68 35 -28 35 C-27.88527344 34.43539062 -27.77054687 33.87078125 -27.65234375 33.2890625 C-26.63540643 29.7206477 -24.75434313 26.71698123 -22.9453125 23.4921875 C-21.44754077 20.80341656 -19.99129563 18.10404782 -18.5546875 15.3828125 C-17.68249925 13.75509709 -16.81010296 12.12749313 -15.9375 10.5 C-15.52636963 9.71028809 -15.11523926 8.92057617 -14.69165039 8.10693359 C-11.1712524 1.61258746 -7.88851438 -2.4008522 0 0 Z " fill="#F8FCFC" transform="translate(313,298)"/>
<path d="M0 0 C1.20874023 1.48022461 1.20874023 1.48022461 2.30859375 3.33984375 C2.73374268 4.05688477 3.1588916 4.77392578 3.59692383 5.51269531 C6.33707467 10.37030045 8.99365264 15.27024472 11.625 20.1875 C12.76198613 22.30654509 13.89997158 24.42505435 15.0390625 26.54296875 C15.53615723 27.47133545 16.03325195 28.39970215 16.54541016 29.35620117 C17.5320963 31.14955872 18.57208505 32.91440928 19.65771484 34.6496582 C21.39933425 37.69923443 21.51521795 39.54067951 21 43 C18.96546741 45.89529638 17.43969389 46.83750443 14.125 48.0625 C10.52824046 47.99056481 9.18770453 47.00718849 6.53417969 44.67407227 C3.64437726 41.52076621 1.92658157 37.75412421 0.0625 33.9375 C-0.79851084 32.23322608 -1.66179539 30.53009895 -2.52734375 28.828125 C-3.15358643 27.5896582 -3.15358643 27.5896582 -3.79248047 26.32617188 C-5.88879536 22.28782001 -8.24322035 18.41908612 -10.625 14.54296875 C-12.14622617 11.72956466 -13.20128666 9.09816701 -14 6 C-12.87835279 2.75968585 -11.85965733 0.73684914 -9.25 -1.5 C-5.52826628 -2.32705194 -3.45008755 -1.57372414 0 0 Z " fill="#F0F8FB" transform="translate(218,299)"/>
<path d="M0 0 C2.875 0.8125 2.875 0.8125 4.875 2.8125 C5.41876821 8.70063815 4.04533863 13.68026562 2.390625 19.25390625 C2.13375916 20.13980942 1.87689331 21.02571259 1.61224365 21.9384613 C1.06875543 23.80303339 0.52050822 25.6662242 -0.03222656 27.52807617 C-0.87220013 30.36554193 -1.69090612 33.20855339 -2.5078125 36.05273438 C-3.04039585 37.87016455 -3.5742092 39.68723483 -4.109375 41.50390625 C-4.35121521 42.34780411 -4.59305542 43.19170197 -4.84222412 44.06117249 C-6.30728851 48.93239166 -7.88587565 52.85124517 -11.125 56.8125 C-15.24471953 57.48510727 -16.62312047 57.14708635 -20.125 54.8125 C-22.1413528 46.4254961 -18.30922532 37.33714356 -15.875 29.375 C-15.47409535 28.02052659 -15.07434898 26.66570979 -14.67578125 25.31054688 C-13.53563878 21.46335473 -12.341325 17.63633454 -11.125 13.8125 C-10.60583008 12.17063721 -10.60583008 12.17063721 -10.07617188 10.49560547 C-9.74681641 9.5160791 -9.41746094 8.53655273 -9.078125 7.52734375 C-8.79614258 6.68163818 -8.51416016 5.83593262 -8.22363281 4.96459961 C-6.26451182 1.12689927 -4.29394335 -0.2576366 0 0 Z " fill="#E8F4FB" transform="translate(259.125,135.1875)"/>
<path d="M0 0 C0.8037355 -0.00428513 1.60747101 -0.00857025 2.43556213 -0.01298523 C4.13256897 -0.01871867 5.82960037 -0.01923605 7.52661133 -0.01489258 C10.11647669 -0.01173391 12.70519776 -0.03519844 15.29492188 -0.06054688 C16.94661315 -0.06282018 18.59830748 -0.06352322 20.25 -0.0625 C21.40646278 -0.07631462 21.40646278 -0.07631462 22.58628845 -0.09040833 C27.12670308 -0.0515326 30.0912257 0.46599001 33.69140625 3.30078125 C35.11182446 6.14161766 35.00592897 8.15555403 34.69140625 11.30078125 C33.24804688 13.46289062 33.24804688 13.46289062 30.69140625 15.30078125 C27.61970733 15.89707978 24.59386124 15.86129391 21.47265625 15.83203125 C20.13031921 15.83777161 20.13031921 15.83777161 18.76086426 15.84362793 C16.87132643 15.84634645 14.98175093 15.83898941 13.09228516 15.82226562 C10.20129435 15.80085448 7.31278858 15.82206859 4.421875 15.84765625 C2.58462994 15.84501296 0.74738642 15.83988796 -1.08984375 15.83203125 C-2.38529114 15.84417664 -2.38529114 15.84417664 -3.70690918 15.85656738 C-9.70000751 15.76300462 -9.70000751 15.76300462 -12.82617188 13.38867188 C-15.22656022 10.00788776 -15.22656022 10.00788776 -15.30859375 7.30078125 C-14.1166049 4.66585853 -13.09353691 2.85705817 -10.71459961 1.17114258 C-7.18646108 -0.10514498 -3.70532392 -0.00436877 0 0 Z " fill="#FBFEFD" transform="translate(249.30859375,451.69921875)"/>
<path d="M0 0 C1.16582108 0.00666183 1.16582108 0.00666183 2.35519409 0.01345825 C3.23595612 0.01360931 4.11671814 0.01376038 5.02416992 0.01391602 C6.4523555 0.02939987 6.4523555 0.02939987 7.90939331 0.04519653 C9.37008743 0.04944138 9.37008743 0.04944138 10.86029053 0.05377197 C13.9783443 0.0649899 17.09611349 0.09009734 20.21408081 0.11550903 C22.32475375 0.12553675 24.43543119 0.13466296 26.54611206 0.14285278 C31.72719916 0.16493445 36.90811966 0.19842774 42.08908081 0.24050903 C41.75908081 0.90050903 41.42908081 1.56050903 41.08908081 2.24050903 C39.35621826 2.27809326 39.35621826 2.27809326 37.58834839 2.31643677 C33.29250452 2.41077849 28.99681227 2.5109334 24.70114136 2.61282349 C22.84375562 2.65607124 20.98633273 2.69775331 19.12887573 2.73782349 C16.45534073 2.79577273 13.781991 2.85939556 11.10861206 2.92410278 C10.28134109 2.94081528 9.45407013 2.95752777 8.60173035 2.9747467 C7.82129868 2.99469193 7.040867 3.01463715 6.23678589 3.03518677 C5.55505814 3.05073105 4.87333038 3.06627533 4.17094421 3.08229065 C1.78583885 3.26355495 -0.56538654 3.7714025 -2.91091919 4.24050903 C-2.91091919 125.02050903 -2.91091919 245.80050903 -2.91091919 370.24050903 C-2.25091919 370.24050903 -1.59091919 370.24050903 -0.91091919 370.24050903 C-0.91091919 370.90050903 -0.91091919 371.56050903 -0.91091919 372.24050903 C65.74908081 372.24050903 132.40908081 372.24050903 201.08908081 372.24050903 C201.08908081 372.57050903 201.08908081 372.90050903 201.08908081 373.24050903 C134.09908081 373.24050903 67.10908081 373.24050903 -1.91091919 373.24050903 C-1.91091919 372.58050903 -1.91091919 371.92050903 -1.91091919 371.24050903 C-2.57091919 371.24050903 -3.23091919 371.24050903 -3.91091919 371.24050903 C-3.95665345 324.26613851 -3.99191641 277.29177034 -4.01304985 230.31738196 C-4.01555139 224.77710917 -4.01814002 219.23683644 -4.02078247 213.69656372 C-4.02130709 212.59355149 -4.02183171 211.49053926 -4.02237223 210.35410242 C-4.03108518 192.47226783 -4.04686003 174.59044605 -4.06522478 156.70861907 C-4.0838991 138.37302901 -4.09503067 120.03744567 -4.09909618 101.70184648 C-4.10184637 90.37925665 -4.11054612 79.05670299 -4.12675212 67.73412429 C-4.13728858 59.97969841 -4.14052743 52.22529135 -4.13792194 44.47085883 C-4.13663542 39.9906967 -4.13866748 35.51059798 -4.14933014 31.03044701 C-4.15900725 26.93470575 -4.1595905 22.83907102 -4.15271698 18.74332504 C-4.15186649 17.25608316 -4.15445037 15.76883484 -4.16068555 14.2816058 C-4.16863004 12.27089067 -4.16322484 10.26013568 -4.15701485 8.24941444 C-4.15777429 7.12923947 -4.15853373 6.0090645 -4.15931618 4.85494483 C-3.86308558 1.73704925 -3.25216501 0.40931875 0 0 Z " fill="#C2ECFD" transform="translate(119.91091918945313,41.759490966796875)"/>
<path d="M0 0 C0.72832031 -0.00773437 1.45664063 -0.01546875 2.20703125 -0.0234375 C7.62157931 -0.00342069 7.62157931 -0.00342069 9.875 2.25 C8.68261719 2.21519531 7.49023438 2.18039063 6.26171875 2.14453125 C4.69532658 2.11639247 3.12891919 2.0890924 1.5625 2.0625 C0.77681641 2.03736328 -0.00886719 2.01222656 -0.81835938 1.98632812 C-1.57568359 1.97666016 -2.33300781 1.96699219 -3.11328125 1.95703125 C-3.80977783 1.9413208 -4.50627441 1.92561035 -5.22387695 1.90942383 C-7.87167892 2.38376359 -8.5440975 3.05756716 -10.125 5.25 C-10.41537113 7.82988233 -10.52124731 10.16754468 -10.49249268 12.74746704 C-10.49576152 13.5179942 -10.49903036 14.28852135 -10.50239825 15.08239782 C-10.50970037 17.67313144 -10.49550081 20.26330452 -10.48144531 22.85400391 C-10.48223598 24.70861406 -10.48433258 26.56322405 -10.48764038 28.41783142 C-10.49278676 33.46623342 -10.47920801 38.51443248 -10.46211338 43.56280184 C-10.44707905 48.85463751 -10.44825118 54.14647052 -10.44744873 59.43832397 C-10.44375139 68.34107928 -10.42877161 77.24375772 -10.40625 86.14648438 C-10.37750715 97.53075963 -10.36703798 108.91497256 -10.3625679 120.29928017 C-10.35856525 130.11988687 -10.34605732 139.94048033 -10.33222103 149.7610774 C-10.32814586 152.89800581 -10.32520789 156.03493376 -10.32242584 159.17186356 C-10.31747758 164.13438513 -10.30718366 169.09687041 -10.29298782 174.05937386 C-10.28852025 175.86797189 -10.28563957 177.67657475 -10.28458023 179.48517799 C-10.27834765 188.18727285 -10.1746407 196.86354788 -9.68133545 205.55331421 C-9.64324304 206.23462202 -9.60515063 206.91592983 -9.5659039 207.61788332 C-9.20814198 213.25593856 -8.35082831 218.73972322 -7.125 224.25 C-7.785 224.25 -8.445 224.25 -9.125 224.25 C-9.125 222.27 -9.125 220.29 -9.125 218.25 C-9.785 218.25 -10.445 218.25 -11.125 218.25 C-13.64348752 203.86822341 -13.39397288 189.45290666 -13.32223511 174.90464401 C-13.3090227 171.89555521 -13.30358321 168.8864692 -13.29779625 165.87735844 C-13.18666466 111.33477556 -12.60366243 56.79036238 -12.125 2.25 C-8.10046551 0.00286597 -4.52181945 -0.04853473 0 0 Z " fill="#D0F2FA" transform="translate(184.125,102.75)"/>
<path d="M0 0 C0.97147224 -0.00306656 0.97147224 -0.00306656 1.96257019 -0.00619507 C4.09708165 -0.00919588 6.23081509 0.00925307 8.36523438 0.02832031 C9.85208953 0.03137956 11.33894755 0.03325442 12.82580566 0.03399658 C15.93948363 0.03859537 19.05290235 0.05300401 22.16650391 0.07519531 C26.15456096 0.10347724 30.14241401 0.11440753 34.13056183 0.11887741 C37.20007358 0.12303769 40.26954427 0.13286026 43.33903503 0.1447525 C44.80941949 0.15044342 46.27980784 0.15520599 47.75019836 0.15901947 C49.80619195 0.16590728 51.86202637 0.17955154 53.91796875 0.1953125 C55.08726929 0.2021405 56.25656982 0.20896851 57.46130371 0.21600342 C59.98038377 0.33402279 62.06214669 0.61845467 64.45898438 1.35644531 C64.45898438 2.01644531 64.45898438 2.67644531 64.45898438 3.35644531 C63.62039886 3.3542247 62.78181335 3.35200409 61.91781616 3.34971619 C54.00240122 3.32965215 46.08699485 3.31444001 38.17156029 3.30463314 C34.10248095 3.2994218 30.03342268 3.29235597 25.96435547 3.28100586 C22.03510965 3.27011475 18.10588405 3.2641553 14.1766243 3.26156807 C12.67997545 3.25972503 11.18332767 3.25612606 9.68668747 3.25071526 C7.585209 3.24342217 5.48381338 3.24245785 3.38232422 3.24291992 C2.18763519 3.24069931 0.99294617 3.2384787 -0.23794556 3.2361908 C-3.42553836 3.35224114 -6.41187602 3.75566911 -9.54101562 4.35644531 C-9.7913254 6.77264354 -9.7913254 6.77264354 -9.54101562 9.35644531 C-8.55101562 10.01644531 -7.56101563 10.67644531 -6.54101562 11.35644531 C-6.87101563 12.01644531 -7.20101562 12.67644531 -7.54101562 13.35644531 C15.55898437 13.35644531 38.65898437 13.35644531 62.45898438 13.35644531 C62.12898438 14.01644531 61.79898438 14.67644531 61.45898438 15.35644531 C52.67935055 15.4723826 43.89998089 15.56118188 35.11974812 15.61550617 C31.04252871 15.6415816 26.96583365 15.67694068 22.88891602 15.73364258 C18.95314075 15.78803784 15.01786925 15.81788131 11.08174706 15.83083153 C9.58140318 15.84005813 8.08108635 15.85807622 6.58095741 15.8850956 C4.47630242 15.92148984 2.37371873 15.92638693 0.26879883 15.92407227 C-1.52656563 15.94072685 -1.52656563 15.94072685 -3.35820007 15.9577179 C-7.49637894 15.17596556 -8.99671957 13.65093724 -11.54101562 10.35644531 C-11.60351562 6.73144531 -11.60351562 6.73144531 -10.54101562 3.35644531 C-7.26996933 0.02409249 -4.54755964 -0.01417832 0 0 Z " fill="#9EC8EE" transform="translate(231.541015625,425.6435546875)"/>
<path d="M0 0 C2.86651437 2.74188331 3.95654743 4.03155638 4.14044189 8.13008118 C4.15252896 9.49203943 4.15897307 10.85405428 4.16113281 12.21606445 C4.16609772 12.95934998 4.17106262 13.7026355 4.17617798 14.46844482 C4.19081169 16.93339964 4.19760406 19.39829008 4.203125 21.86328125 C4.20887605 23.57480369 4.21463379 25.28632611 4.22039795 26.99784851 C4.23091178 30.58995871 4.23675175 34.1820465 4.24023438 37.77416992 C4.24571585 42.37434556 4.26973473 46.97422472 4.29820633 51.57430744 C4.31684302 55.11137248 4.32203889 58.64836631 4.32357025 62.1854763 C4.32659566 63.88113206 4.33462046 65.5767866 4.34775543 67.27239418 C4.36483558 69.64707502 4.36293099 72.02103438 4.35644531 74.39575195 C4.3656601 75.09464035 4.37487488 75.79352875 4.3843689 76.51359558 C4.34742274 80.83816627 3.64388911 83.55684768 1 87 C-2.04300316 88.52150158 -4.654085 88.23899393 -8 88 C-8.66 87.01 -9.32 86.02 -10 85 C-6.37 85 -2.74 85 1 85 C1.02322019 75.09861753 1.04096431 65.1972416 1.05181217 55.2958374 C1.05701987 50.6977034 1.06407899 46.09958809 1.07543945 41.50146484 C1.08634362 37.05998553 1.09229275 32.61852414 1.09487724 28.17703247 C1.09671795 26.48666095 1.10031232 24.79629035 1.10573006 23.10592651 C1.11304054 20.72945064 1.11398675 18.35304789 1.11352539 15.9765625 C1.11712067 15.28531784 1.12071594 14.59407318 1.12442017 13.88188171 C1.11458203 9.16638913 0.65588528 4.65923617 0 0 Z " fill="#86B7DF" transform="translate(264,301)"/>
<path d="M0 0 C0.8037355 -0.00428513 1.60747101 -0.00857025 2.43556213 -0.01298523 C4.13256897 -0.01871867 5.82960037 -0.01923605 7.52661133 -0.01489258 C10.11647669 -0.01173391 12.70519776 -0.03519844 15.29492188 -0.06054688 C16.94661315 -0.06282018 18.59830748 -0.06352322 20.25 -0.0625 C21.40646278 -0.07631462 21.40646278 -0.07631462 22.58628845 -0.09040833 C27.12670308 -0.0515326 30.0912257 0.46599001 33.69140625 3.30078125 C35.11182446 6.14161766 35.00592897 8.15555403 34.69140625 11.30078125 C33.24804688 13.46289062 33.24804688 13.46289062 30.69140625 15.30078125 C27.61970733 15.89707978 24.59386124 15.86129391 21.47265625 15.83203125 C20.13031921 15.83777161 20.13031921 15.83777161 18.76086426 15.84362793 C16.87132643 15.84634645 14.98175093 15.83898941 13.09228516 15.82226562 C10.20129435 15.80085448 7.31278858 15.82206859 4.421875 15.84765625 C2.58462994 15.84501296 0.74738642 15.83988796 -1.08984375 15.83203125 C-2.38529114 15.84417664 -2.38529114 15.84417664 -3.70690918 15.85656738 C-9.70000751 15.76300462 -9.70000751 15.76300462 -12.82617188 13.38867188 C-15.22656022 10.00788776 -15.22656022 10.00788776 -15.30859375 7.30078125 C-14.1166049 4.66585853 -13.09353691 2.85705817 -10.71459961 1.17114258 C-7.18646108 -0.10514498 -3.70532392 -0.00436877 0 0 Z M-2.93359375 2.17578125 C-3.63701904 2.25417236 -4.34044434 2.33256348 -5.06518555 2.41333008 C-8.50596384 2.85808553 -10.36490462 3.33832183 -13.30859375 5.30078125 C-13.05298052 7.64390255 -12.71588603 9.97921528 -12.30859375 12.30078125 C-8.9503384 13.97990893 -5.16121446 13.44233352 -1.46875 13.43359375 C-0.59085312 13.43455048 0.28704376 13.4355072 1.19154358 13.43649292 C3.05014111 13.43717408 4.90874101 13.43532427 6.76733398 13.43115234 C9.61382394 13.42580956 12.46015564 13.43109621 15.30664062 13.4375 C17.11067743 13.43683908 18.91471414 13.43555764 20.71875 13.43359375 C21.99853981 13.4366301 21.99853981 13.4366301 23.30418396 13.43972778 C26.68026522 13.42632732 29.46646396 13.37576201 32.69140625 12.30078125 C32.71203125 11.02203125 32.73265625 9.74328125 32.75390625 8.42578125 C32.76550781 7.70648438 32.77710938 6.9871875 32.7890625 6.24609375 C32.81789867 4.21892721 32.81789867 4.21892721 31.69140625 2.30078125 C27.27080977 0.78178585 22.62100416 1.10915221 18.00390625 1.11328125 C17.07723145 1.11408691 16.15055664 1.11489258 15.19580078 1.11572266 C9.11165811 1.16884563 3.11131399 1.48214684 -2.93359375 2.17578125 Z " fill="#9ACAF0" transform="translate(249.30859375,451.69921875)"/>
<path d="M0 0 C14.52 0 29.04 0 44 0 C43.67 0.66 43.34 1.32 43 2 C41.26713745 2.03758423 41.26713745 2.03758423 39.49926758 2.07592773 C35.20342371 2.17026945 30.90773146 2.27042437 26.61206055 2.37231445 C24.75467481 2.41556221 22.89725192 2.45724428 21.03979492 2.49731445 C18.36625992 2.5552637 15.69291019 2.61888652 13.01953125 2.68359375 C12.19226028 2.70030624 11.36498932 2.71701874 10.51264954 2.73423767 C6.56096105 2.8352296 2.85881731 3.04295881 -1 4 C-0.67 2.68 -0.34 1.36 0 0 Z " fill="#B0D5F1" transform="translate(118,42)"/>
<path d="M0 0 C0.33 0 0.66 0 1 0 C2.50832848 6.48345927 2.28800646 13.06465929 2.3125 19.6875 C2.31545074 20.38263702 2.31840149 21.07777405 2.32144165 21.79397583 C2.3353417 36.16849668 0.18687724 48.57951246 -5 62 C-5.33 62 -5.66 62 -6 62 C-6 60.02 -6 58.04 -6 56 C-5.34 56 -4.68 56 -4 56 C-3.81824219 54.24623047 -3.81824219 54.24623047 -3.6328125 52.45703125 C-3.46391599 50.90881329 -3.29462432 49.36063839 -3.125 47.8125 C-3.04636719 47.04357422 -2.96773438 46.27464844 -2.88671875 45.48242188 C-2.76103516 44.35610352 -2.76103516 44.35610352 -2.6328125 43.20703125 C-2.55949707 42.5210083 -2.48618164 41.83498535 -2.41064453 41.12817383 C-2 39 -2 39 -0.97265625 36.73242188 C0.29846777 33.16153332 0.249064 29.81246522 0.1953125 26.07421875 C0.1924826 25.32662796 0.18965271 24.57903717 0.18673706 23.80879211 C0.17559469 21.4348612 0.15050162 19.06131575 0.125 16.6875 C0.11496249 15.0722711 0.10583799 13.45703624 0.09765625 11.84179688 C0.07567489 7.89438406 0.04118657 3.94725726 0 0 Z " fill="#A7D5F2" transform="translate(413,292)"/>
<path d="M0 0 C0.66 0 1.32 0 2 0 C9.62442934 8.38383466 11.81562287 19.04009223 13 30 C12.01 29.67 11.02 29.34 10 29 C8.73638028 23.01314152 7.67581523 17.08233706 7 11 C5.35 11.33 3.7 11.66 2 12 C2.33 9.69 2.66 7.38 3 5 C2.01 4.67 1.02 4.34 0 4 C0 2.68 0 1.36 0 0 Z " fill="#DAF0FB" transform="translate(207,368)"/>
<path d="M0 0 C0.33 0.99 0.66 1.98 1 3 C-3 7 -7 11 -11 15 C-11.556875 15.598125 -12.11375 16.19625 -12.6875 16.8125 C-14 18 -14 18 -16 18 C-16.4021875 19.2065625 -16.4021875 19.2065625 -16.8125 20.4375 C-17.204375 21.283125 -17.59625 22.12875 -18 23 C-18.99 23.33 -19.98 23.66 -21 24 C-19.54755344 19.48586212 -17.19375837 16.65514172 -14 13.1875 C-13.113125 12.21167969 -12.22625 11.23585938 -11.3125 10.23046875 C-9 8 -9 8 -7 8 C-7 7.34 -7 6.68 -7 6 C-6.34 6 -5.68 6 -5 6 C-5 5.34 -5 4.68 -5 4 C-3.37373596 2.61767557 -1.7074998 1.28062485 0 0 Z " fill="#B8DDFB" transform="translate(325,353)"/>
<path d="M0 0 C0.50958519 2.03834076 1.01372981 4.06668764 1.4375 6.125 C1.90475673 8.22082328 1.90475673 8.22082328 4 10 C6.68839385 10.26991906 9.29141936 10.08737357 12 10 C12 9.01 12 8.02 12 7 C13.32 6.67 14.64 6.34 16 6 C11.7535545 12.97630332 11.7535545 12.97630332 8 14 C4.84716608 13.8423583 3.27430537 13.19275513 0.6875 11.375 C-1.61456342 8.13505889 -1.35994156 5.8873688 -1 2 C-0.67 1.34 -0.34 0.68 0 0 Z " fill="#96C5F2" transform="translate(283,333)"/>
<path d="M0 0 C0.33 0 0.66 0 1 0 C1.24965165 10.554717 0.67901457 20.56612375 -1 31 C-1.33 31 -1.66 31 -2 31 C-2.21367504 20.42308574 -2.06142435 10.41755521 0 0 Z " fill="#BFE1F8" transform="translate(395,138)"/>
<path d="M0 0 C0.33 0 0.66 0 1 0 C1.63953872 7.12397564 -0.15536194 11.04558346 -3.9375 17 C-4.40607422 17.77472656 -4.87464844 18.54945313 -5.35742188 19.34765625 C-7.79633113 23.32711393 -7.79633113 23.32711393 -9 25 C-9.33 25 -9.66 25 -10 25 C-10 23.35 -10 21.7 -10 20 C-9.34 20 -8.68 20 -8 20 C-8 19.34 -8 18.68 -8 18 C-7.34 18 -6.68 18 -6 18 C-6 16.35 -6 14.7 -6 13 C-5.34 13 -4.68 13 -4 13 C-4 11.68 -4 10.36 -4 9 C-3.34 9 -2.68 9 -2 9 C-2 8.01 -2 7.02 -2 6 C-1.34 6 -0.68 6 0 6 C0 4.02 0 2.04 0 0 Z " fill="#B7DCF5" transform="translate(315,301)"/>
<path d="M0 0 C0.66 0.99 1.32 1.98 2 3 C0.68 3.33 -0.64 3.66 -2 4 C-2 3.01 -2 2.02 -2 1 C-3.65 1 -5.3 1 -7 1 C-7.33 2.32 -7.66 3.64 -8 5 C-9.32 5.33 -10.64 5.66 -12 6 C-12.103125 6.763125 -12.20625 7.52625 -12.3125 8.3125 C-13.04364039 11.17059424 -13.76951913 12.15742885 -16 14 C-16 10.41815751 -15.06642869 8.99035911 -13.25 5.9375 C-12.48429687 4.62072266 -12.48429687 4.62072266 -11.703125 3.27734375 C-8.34098033 -1.21836804 -5.28331497 -1.49311075 0 0 Z " fill="#AAD5F5" transform="translate(313,298)"/>
<path d="M0 0 C8.91 0 17.82 0 27 0 C23.85164104 2.09890597 22.77704501 2.12663963 19.16015625 1.99609375 C16.54984908 2.00081402 14.02915791 2.31823233 11.4375 2.625 C7.11656504 3.05947418 4.02666571 2.85008965 0 1 C0 0.67 0 0.34 0 0 Z " fill="#B0D5ED" transform="translate(199,42)"/>
<path d="M0 0 C0.33 0 0.66 0 1 0 C1.11644156 3.08301416 1.18732432 6.16546123 1.25 9.25 C1.30027344 10.55904297 1.30027344 10.55904297 1.3515625 11.89453125 C1.45012486 18.35036565 1.45012486 18.35036565 -0.7890625 21.58203125 C-3.98155047 23.62951028 -6.29808399 23.479878 -10 23 C-10.66 22.01 -11.32 21.02 -12 20 C-8.37 20 -4.74 20 -1 20 C-0.67 13.4 -0.34 6.8 0 0 Z " fill="#D5F5FD" transform="translate(266,366)"/>
<path d="M0 0 C0.33 1.32 0.66 2.64 1 4 C0.34 4 -0.32 4 -1 4 C-1.226875 4.7425 -1.45375 5.485 -1.6875 6.25 C-3.2589561 9.5425747 -4.99995716 10.97497109 -8 13 C-8.66 13 -9.32 13 -10 13 C-10.33 13.99 -10.66 14.98 -11 16 C-11.99 15.67 -12.98 15.34 -14 15 C-13.04882866 13.8274869 -12.08882991 12.66212985 -11.125 11.5 C-10.59132812 10.8503125 -10.05765625 10.200625 -9.5078125 9.53125 C-8.76144531 8.77328125 -8.76144531 8.77328125 -8 8 C-7.34 8 -6.68 8 -6 8 C-6 7.34 -6 6.68 -6 6 C-5.34 6 -4.68 6 -4 6 C-3.566875 5.071875 -3.566875 5.071875 -3.125 4.125 C-2 2 -2 2 0 0 Z " fill="#BBE7FC" transform="translate(218,138)"/>
<path d="M0 0 C1.3921875 0.3403125 1.3921875 0.3403125 2.8125 0.6875 C3.4725 2.9975 4.1325 5.3075 4.8125 7.6875 C3.1625 9.0075 1.5125 10.3275 -0.1875 11.6875 C-0.5175 8.7175 -0.8475 5.7475 -1.1875 2.6875 C-2.8375 2.6875 -4.4875 2.6875 -6.1875 2.6875 C-4.14987265 -0.14253799 -3.59070275 -0.35202968 0 0 Z " fill="#D8EDF7" transform="translate(278.1875,135.3125)"/>
<path d="M0 0 C-0.66 0.66 -1.32 1.32 -2 2 C-2.24253813 4.21072977 -2.24253813 4.21072977 -2.125 6.625 C-2.10695313 7.44226563 -2.08890625 8.25953125 -2.0703125 9.1015625 C-2.04710937 9.72804687 -2.02390625 10.35453125 -2 11 C-2.66 10.67 -3.32 10.34 -4 10 C-4 9.34 -4 8.68 -4 8 C-4.99 8 -5.98 8 -7 8 C-7.33 5.69 -7.66 3.38 -8 1 C-5.29120665 -0.35439668 -2.99066732 -0.06501451 0 0 Z " fill="#F8FDFD" transform="translate(280,137)"/>
<path d="M0 0 C0.66 0 1.32 0 2 0 C0.51131293 4.60139641 -1.74629855 7.50227094 -5 11 C-5.66 11 -6.32 11 -7 11 C-7 11.66 -7 12.32 -7 13 C-7.66 13 -8.32 13 -9 13 C-9.33 12.01 -9.66 11.02 -10 10 C-9.21625 9.236875 -8.4325 8.47375 -7.625 7.6875 C-4.92742283 5.09108195 -4.92742283 5.09108195 -3 2 C-2.01 2 -1.02 2 0 2 C0 1.34 0 0.68 0 0 Z " fill="#C6F1FC" transform="translate(380,195)"/>
<path d="M0 0 C0 0.66 0 1.32 0 2 C-8.25 1.67 -16.5 1.34 -25 1 C-25 0.67 -25 0.34 -25 0 C-7.32663145 -2.1468734 -7.32663145 -2.1468734 0 0 Z " fill="#A5C8F5" transform="translate(288,104)"/>
<path d="M0 0 C-3.82255915 3.82255915 -10.22149537 4.78760261 -15.50390625 5.19140625 C-17.33704521 5.18812693 -19.16978775 5.10359692 -21 5 C-18.01713874 2.45904411 -15.86506687 1.53931166 -12 1 C-10.2675 0.7215625 -10.2675 0.7215625 -8.5 0.4375 C-5.6068373 0.07585466 -2.90711087 -0.08809427 0 0 Z " fill="#B9D6F8" transform="translate(347,408)"/>
<path d="M0 0 C8.52944052 -0.54187034 16.77767977 0.75941774 25 3 C25.66 3.66 26.32 4.32 27 5 C24.79112243 4.88501733 22.58289213 4.75756495 20.375 4.625 C19.14523437 4.55539063 17.91546875 4.48578125 16.6484375 4.4140625 C13.14687019 4.01666835 10.30127966 3.18697696 7 2 C4.67305036 1.62468554 2.34023315 1.28082798 0 1 C0 0.67 0 0.34 0 0 Z " fill="#ACDFF8" transform="translate(291,43)"/>
<path d="M0 0 C0.66 0.33 1.32 0.66 2 1 C-1.32307692 4.93846154 -1.32307692 4.93846154 -4.75 5.25 C-5.4925 5.1675 -6.235 5.085 -7 5 C-7.226875 5.639375 -7.45375 6.27875 -7.6875 6.9375 C-9 9 -9 9 -11.625 9.75 C-12.40875 9.8325 -13.1925 9.915 -14 10 C-14.33 9.34 -14.66 8.68 -15 8 C-14.34 8 -13.68 8 -13 8 C-13 7.34 -13 6.68 -13 6 C-11.783125 5.566875 -10.56625 5.13375 -9.3125 4.6875 C-6.66921873 3.70971985 -4.55410462 2.72858542 -2.125 1.25 C-1.073125 0.63125 -1.073125 0.63125 0 0 Z " fill="#94C5EE" transform="translate(300,206)"/>
<path d="M0 0 C-3.33311475 1.7824918 -6.24480943 2.48792856 -10 3 C-10.25030977 5.41619823 -10.25030977 5.41619823 -10 8 C-9.01 8.66 -8.02 9.32 -7 10 C-7 10.99 -7 11.98 -7 13 C-8.9375 12.4375 -8.9375 12.4375 -11 11 C-11.99164185 7.43008934 -12.38841632 5.0820169 -11.125 1.5625 C-7.72112296 -0.94035076 -4.08361405 -0.30819729 0 0 Z " fill="#CBECF9" transform="translate(232,427)"/>
<path d="M0 0 C3 3 3 3 3.5 6.5 C3 10 3 10 0.9375 12.0625 C-2.96309468 13.30737064 -5.23083364 12.40419923 -9 11 C-5.98968256 10.06576355 -5.13349732 9.95550089 -2 11 C-2 10.34 -2 9.68 -2 9 C-1.01 9 -0.02 9 1 9 C0.67 6.03 0.34 3.06 0 0 Z " fill="#A8D4F7" transform="translate(228,179)"/>
<path d="M0 0 C4.77235098 4.21089792 8.28419455 9.23146586 11 15 C10.67 15.66 10.34 16.32 10 17 C8 16 8 16 7.0625 13.625 C6.20661643 11.01967001 6.20661643 11.01967001 4.5625 9.5625 C2.34559149 7.34559149 1.26990528 4.84216895 0 2 C0 1.34 0 0.68 0 0 Z " fill="#A6D9F4" transform="translate(395,252)"/>
<path d="M0 0 C0 3 0 3 -2 5.25 C-4.51376147 8.70642203 -4.32767094 10.8221955 -4 15 C-4.66 15 -5.32 15 -6 15 C-7.40457737 12.19084526 -7.24895157 10.11189466 -7 7 C-5.625 4.625 -5.625 4.625 -4 3 C-3.34 3 -2.68 3 -2 3 C-2 2.34 -2 1.68 -2 1 C-1.34 0.67 -0.68 0.34 0 0 Z " fill="#A2CFF6" transform="translate(203,154)"/>
<path d="M0 0 C4.38947368 1.28026316 4.38947368 1.28026316 6 3.875 C6.1875 7.0625 6.1875 7.0625 6 9.875 C5.01 10.37 5.01 10.37 4 10.875 C4 8.895 4 6.915 4 4.875 C3.34 4.875 2.68 4.875 2 4.875 C2 3.885 2 2.895 2 1.875 C-0.64 2.205 -3.28 2.535 -6 2.875 C-4.05972988 0.18018039 -3.40614751 -0.14192281 0 0 Z " fill="#9ACDF4" transform="translate(225,135.125)"/>
<path d="M0 0 C0.66 0.33 1.32 0.66 2 1 C2.31944345 4.51387796 2.43883512 6.37550387 0.375 9.3125 C-2.48805723 11.34677751 -4.50620505 11.84809587 -8 12 C-8.66 11.34 -9.32 10.68 -10 10 C-7.69 10 -5.38 10 -3 10 C-3 9.01 -3 8.02 -3 7 C-2.01 7 -1.02 7 0 7 C0 4.69 0 2.38 0 0 Z " fill="#8DC7F0" transform="translate(237,335)"/>
<path d="M0 0 C1.4606285 2.64738916 2 3.89448334 2 7 C2.99 7 3.98 7 5 7 C6.0625 8.8125 6.0625 8.8125 7 11 C6.67 11.99 6.34 12.98 6 14 C4.5 12.625 4.5 12.625 3 11 C3 10.34 3 9.68 3 9 C2.01 8.67 1.02 8.34 0 8 C-1.125 2.25 -1.125 2.25 0 0 Z " fill="#BBE1F9" transform="translate(271,138)"/>
<path d="M0 0 C0.66 0.33 1.32 0.66 2 1 C0.88096454 2.81618856 -0.24541284 4.62785526 -1.375 6.4375 C-2.00148438 7.44683594 -2.62796875 8.45617187 -3.2734375 9.49609375 C-5 12 -5 12 -7 13 C-6.53981898 8.85837086 -6.14493915 6.75182176 -3 4 C-2.67 3.01 -2.34 2.02 -2 1 C-1.34 0.67 -0.68 0.34 0 0 Z " fill="#B3DCF1" transform="translate(401,363)"/>
<path d="M0 0 C1.09178911 3.27536732 0.93042848 4.04413619 0.00390625 7.23046875 C-0.22490234 8.03291016 -0.45371094 8.83535156 -0.68945312 9.66210938 C-0.93630859 10.49548828 -1.18316406 11.32886719 -1.4375 12.1875 C-1.68048828 13.03248047 -1.92347656 13.87746094 -2.17382812 14.74804688 C-2.77493493 16.8342411 -3.38647834 18.91742301 -4 21 C-6 18 -6 18 -6 15 C-5.34 15 -4.68 15 -4 15 C-3.87882813 14.25234375 -3.75765625 13.5046875 -3.6328125 12.734375 C-3.46523437 11.74953125 -3.29765625 10.7646875 -3.125 9.75 C-2.88136719 8.28820312 -2.88136719 8.28820312 -2.6328125 6.796875 C-2.05144152 4.22735883 -1.29159735 2.27928944 0 0 Z " fill="#95CBF1" transform="translate(257,162)"/>
<path d="M0 0 C3.875 2.75 3.875 2.75 5 5 C6.98 4.67 8.96 4.34 11 4 C12.32 5.65 13.64 7.3 15 9 C10.16371695 8.00956295 5.52381127 7.04301154 1 5 C1 4.34 1 3.68 1 3 C0.34 3 -0.32 3 -1 3 C-0.67 2.01 -0.34 1.02 0 0 Z " fill="#A6CBF7" transform="translate(286,230)"/>
<path d="M0 0 C5.65020618 0.60108576 10.66164461 2.07528683 16 4 C16 4.33 16 4.66 16 5 C14.00045254 5.04254356 11.99958364 5.04080783 10 5 C9.67 4.67 9.34 4.34 9 4 C7.865625 3.87625 6.73125 3.7525 5.5625 3.625 C4.386875 3.41875 3.21125 3.2125 2 3 C1.34 2.01 0.68 1.02 0 0 Z " fill="#B3D8F4" transform="translate(318,48)"/>
<path d="M0 0 C0.33 0 0.66 0 1 0 C1.27912469 15.41388539 1.27912469 15.41388539 -1.5625 18.9375 C-2.036875 19.288125 -2.51125 19.63875 -3 20 C-2.06830908 13.32288172 -1.03189962 6.66226455 0 0 Z " fill="#A7D7F5" transform="translate(345,308)"/>
<path d="M0 0 C1.485 0.99 1.485 0.99 3 2 C3.34057617 3.87939453 3.34057617 3.87939453 3.29296875 6.1328125 C3.28330078 6.93847656 3.27363281 7.74414062 3.26367188 8.57421875 C3.23853516 9.41597656 3.21339844 10.25773437 3.1875 11.125 C3.17396484 11.97449219 3.16042969 12.82398438 3.14648438 13.69921875 C3.11108219 15.79974837 3.05727401 17.89995293 3 20 C2.67 20 2.34 20 2 20 C1.34 13.4 0.68 6.8 0 0 Z " fill="#B4E0F9" transform="translate(344,288)"/>
<path d="M0 0 C0.33 0.66 0.66 1.32 1 2 C-0.625 5 -0.625 5 -3 8 C-6.0625 8.5625 -6.0625 8.5625 -9 8 C-9.99 7.01 -10.98 6.02 -12 5 C-8.7 5 -5.4 5 -2 5 C-1.34 3.35 -0.68 1.7 0 0 Z " fill="#AED6F7" transform="translate(251,184)"/>
<path d="M0 0 C0 0.33 0 0.66 0 1 C-2.64 1 -5.28 1 -8 1 C-8 1.99 -8 2.98 -8 4 C-8.99 4.495 -8.99 4.495 -10 5 C-10.65555119 7.52733235 -10.65555119 7.52733235 -11 10 C-11.66 9.01 -12.32 8.02 -13 7 C-10.597254 1.47368421 -10.597254 1.47368421 -8.1875 -0.4375 C-5.23707024 -1.19618194 -2.9388592 -0.66792254 0 0 Z " fill="#A0DDF8" transform="translate(217,298)"/>
<path d="M0 0 C0.66 0 1.32 0 2 0 C2.33 2.31 2.66 4.62 3 7 C3.99 7.33 4.98 7.66 6 8 C5.67 9.32 5.34 10.64 5 12 C3.96674014 10.57140593 2.94872366 9.13177617 1.9375 7.6875 C1.36902344 6.88699219 0.80054688 6.08648437 0.21484375 5.26171875 C-0.18605469 4.51535156 -0.58695313 3.76898438 -1 3 C-0.67 2.01 -0.34 1.02 0 0 Z " fill="#A9D7F5" transform="translate(220,332)"/>
<path d="M0 0 C3 1 3 1 4.75 3.4375 C5.36875 4.7059375 5.36875 4.7059375 6 6 C5.67 6.66 5.34 7.32 5 8 C5.66 8.33 6.32 8.66 7 9 C6.34 9.66 5.68 10.32 5 11 C4.16151196 9.54462432 3.32936066 8.08559627 2.5 6.625 C1.80390625 5.40683594 1.80390625 5.40683594 1.09375 4.1640625 C0 2 0 2 0 0 Z " fill="#B3DEF6" transform="translate(210,316)"/>
<path d="M0 0 C0.33 0.99 0.66 1.98 1 3 C2.98 2.67 4.96 2.34 7 2 C6.34 3.32 5.68 4.64 5 6 C5.66 6.33 6.32 6.66 7 7 C3.60406522 7 2.93380119 6.47834052 0.3125 4.5 C-0.31011719 4.0359375 -0.93273437 3.571875 -1.57421875 3.09375 C-2.04472656 2.7328125 -2.51523437 2.371875 -3 2 C-2.01 1.34 -1.02 0.68 0 0 Z " fill="#C4EBF9" transform="translate(319,246)"/>
<path d="M0 0 C1.98 0 3.96 0 6 0 C4.515 1.485 4.515 1.485 3 3 C4.98 3.99 6.96 4.98 9 6 C9 6.33 9 6.66 9 7 C6.36 6.67 3.72 6.34 1 6 C0.67 4.02 0.34 2.04 0 0 Z " fill="#A9D1EF" transform="translate(352,219)"/>
<path d="M0 0 C3.96 0 7.92 0 12 0 C9 3 9 3 5.4375 3.375 C4.303125 3.25125 3.16875 3.1275 2 3 C1.34 2.01 0.68 1.02 0 0 Z " fill="#92C0ED" transform="translate(254,386)"/>
<path d="M0 0 C2.27474277 3.41211416 2.56629644 5.6568529 3.125 9.6875 C3.29257813 10.86699219 3.46015625 12.04648437 3.6328125 13.26171875 C3.75398437 14.16535156 3.87515625 15.06898438 4 16 C3.01 15.67 2.02 15.34 1 15 C0.67 10.05 0.34 5.1 0 0 Z " fill="#8EB6EC" transform="translate(216,382)"/>
<path d="M0 0 C0.66 0 1.32 0 2 0 C1.32902328 4.19360449 -0.8558394 7.40334352 -3 11 C-3.33 9.68 -3.66 8.36 -4 7 C-3.34 7 -2.68 7 -2 7 C-1.855625 6.21625 -1.71125 5.4325 -1.5625 4.625 C-1 2 -1 2 0 0 Z " fill="#B0D6F3" transform="translate(303,326)"/>
<path d="M0 0 C1.32 0.33 2.64 0.66 4 1 C1.36 2.98 -1.28 4.96 -4 7 C-4 5.68 -4 4.36 -4 3 C-3.01 3 -2.02 3 -1 3 C-0.67 2.01 -0.34 1.02 0 0 Z " fill="#B4D7F4" transform="translate(381,386)"/>
<path d="M0 0 C0.66 0 1.32 0 2 0 C5.42857143 7.28571429 5.42857143 7.28571429 5 12 C2.65085508 9.65085508 2.26859643 8.04320554 1.375 4.875 C1.11460937 3.96492188 0.85421875 3.05484375 0.5859375 2.1171875 C0.39257812 1.41851562 0.19921875 0.71984375 0 0 Z " fill="#B9E0F7" transform="translate(339,272)"/>
<path d="M0 0 C2.53833449 1.26916725 2.89400901 2.41624809 4.125 4.9375 C4.47820312 5.64777344 4.83140625 6.35804687 5.1953125 7.08984375 C6 9 6 9 6 11 C5.01 11 4.02 11 3 11 C3 9.35 3 7.7 3 6 C2.34 6 1.68 6 1 6 C0.67 4.02 0.34 2.04 0 0 Z " fill="#AED8F9" transform="translate(382,94)"/>
<path d="M0 0 C1.62490954 -0.02698189 3.24994633 -0.04638757 4.875 -0.0625 C5.77992188 -0.07410156 6.68484375 -0.08570313 7.6171875 -0.09765625 C10 0 10 0 12 1 C12 1.66 12 2.32 12 3 C10.56163249 2.88541307 9.12429034 2.75790884 7.6875 2.625 C6.88699219 2.55539063 6.08648437 2.48578125 5.26171875 2.4140625 C3 2 3 2 0 0 Z " fill="#C6E3F4" transform="translate(199,42)"/>
<path d="M0 0 C-6.5 3 -6.5 3 -11 3 C-11 2.34 -11 1.68 -11 1 C-3.57142857 -1.42857143 -3.57142857 -1.42857143 0 0 Z " fill="#B8DEF6" transform="translate(358,405)"/>
<path d="M0 0 C1.32 0.66 2.64 1.32 4 2 C1.69 4.31 -0.62 6.62 -3 9 C-3.33 8.01 -3.66 7.02 -4 6 C-3.34 6 -2.68 6 -2 6 C-2 5.34 -2 4.68 -2 4 C-1.34 4 -0.68 4 0 4 C0 2.68 0 1.36 0 0 Z " fill="#B1D7F3" transform="translate(389,377)"/>
<path d="M0 0 C2.05078125 0.03255208 4.1015625 0.06510417 6.15234375 0.09765625 C6.15234375 0.42765625 6.15234375 0.75765625 6.15234375 1.09765625 C4.50234375 1.09765625 2.85234375 1.09765625 1.15234375 1.09765625 C1.15234375 1.75765625 1.15234375 2.41765625 1.15234375 3.09765625 C-0.49765625 3.75765625 -2.14765625 4.41765625 -3.84765625 5.09765625 C-2.72914438 0.14424653 -2.72914438 0.14424653 0 0 Z " fill="#A8D9F3" transform="translate(257.84765625,299.90234375)"/>
<path d="M0 0 C0.66 0.33 1.32 0.66 2 1 C1.3125 2.9375 1.3125 2.9375 0 5 C-2.625 5.75 -2.625 5.75 -5 6 C-2.25 1.125 -2.25 1.125 0 0 Z " fill="#C3E0FB" transform="translate(289,163)"/>
<path d="M0 0 C0.66 0.33 1.32 0.66 2 1 C2.1875 4.375 2.1875 4.375 2 8 C1.01 8.66 0.02 9.32 -1 10 C-0.67 6.7 -0.34 3.4 0 0 Z " fill="#94CAF1" transform="translate(296,429)"/>
<path d="M0 0 C0.66 0.33 1.32 0.66 2 1 C0.3125 4 0.3125 4 -2 7 C-4.75 7.375 -4.75 7.375 -7 7 C-5.37660195 5.29115995 -3.70680947 3.62553283 -2 2 C-1.34 2 -0.68 2 0 2 C0 1.34 0 0.68 0 0 Z " fill="#9CC4ED" transform="translate(309,199)"/>
<path d="M0 0 C0.33 0 0.66 0 1 0 C1.10884119 1.41493551 1.18597617 2.83232943 1.25 4.25 C1.29640625 5.03890625 1.3428125 5.8278125 1.390625 6.640625 C1 9 1 9 -3 13 C-2.01 8.71 -1.02 4.42 0 0 Z " fill="#A3C9F1" transform="translate(326,169)"/>
<path d="M0 0 C0.66 0 1.32 0 2 0 C2 1.65 2 3.3 2 5 C0.02 5.66 -1.96 6.32 -4 7 C-2.68 4.69 -1.36 2.38 0 0 Z " fill="#B2D0F4" transform="translate(333,342)"/>
<path d="M0 0 C1.98 0 3.96 0 6 0 C4.25 2 4.25 2 2 4 C0.68 4 -0.64 4 -2 4 C-2 3.34 -2 2.68 -2 2 C-1.34 2 -0.68 2 0 2 C0 1.34 0 0.68 0 0 Z " fill="#ADCAF7" transform="translate(287,212)"/>
<path d="M0 0 C3.63 0 7.26 0 11 0 C8.59179639 2.40820361 7.34977063 2.68097423 4 3 C1.6875 2.0625 1.6875 2.0625 0 1 C0 0.67 0 0.34 0 0 Z " fill="#AFE0F8" transform="translate(272,189)"/>
<path d="M0 0 C1.98 0 3.96 0 6 0 C6 1.98 6 3.96 6 6 C3.97945196 4.35830472 1.97956942 2.69088222 0 1 C0 0.67 0 0.34 0 0 Z " fill="#A1CDEF" transform="translate(207,177)"/>
<path d="M0 0 C2.97 1.65 5.94 3.3 9 5 C8.67 5.66 8.34 6.32 8 7 C7.34 7 6.68 7 6 7 C6 6.34 6 5.68 6 5 C5.195625 4.731875 4.39125 4.46375 3.5625 4.1875 C2.716875 3.795625 1.87125 3.40375 1 3 C0.67 2.01 0.34 1.02 0 0 Z " fill="#BCE2FB" transform="translate(348,60)"/>
<path d="M0 0 C-3.08888522 2.05925681 -3.70935927 2.2390374 -7.1875 2.125 C-9.0746875 2.063125 -9.0746875 2.063125 -11 2 C-7.374967 -1.625033 -4.81746234 -1.01907857 0 0 Z " fill="#9AC4F2" transform="translate(337,411)"/>
<path d="M0 0 C0.66 0 1.32 0 2 0 C3.38232443 1.62626404 4.71937515 3.2925002 6 5 C5.67 5.66 5.34 6.32 5 7 C2.5 5.75 2.5 5.75 0 4 C0 2.68 0 1.36 0 0 Z " fill="#AAD9F3" transform="translate(207,368)"/>
<path d="M0 0 C0.33 0.66 0.66 1.32 1 2 C0.0625 4.625 0.0625 4.625 -1 7 C-1.66 7 -2.32 7 -3 7 C-3.33 7.99 -3.66 8.98 -4 10 C-4.33 9.34 -4.66 8.68 -5 8 C-4.00390625 6.0546875 -4.00390625 6.0546875 -2.5625 3.875 C-2.08941406 3.15054687 -1.61632812 2.42609375 -1.12890625 1.6796875 C-0.75636719 1.12539063 -0.38382812 0.57109375 0 0 Z " fill="#A2DAF5" transform="translate(295,313)"/>
<path d="M0 0 C2.875 0.3125 2.875 0.3125 6 1 C6.66 1.99 7.32 2.98 8 4 C6.68 4.33 5.36 4.66 4 5 C4 4.01 4 3.02 4 2 C2.35 2 0.7 2 -1 2 C-0.67 1.34 -0.34 0.68 0 0 Z " fill="#C4ECFC" transform="translate(307,297)"/>
<path d="M0 0 C0.99 0.33 1.98 0.66 3 1 C3.33 3.97 3.66 6.94 4 10 C1.7448078 7.7448078 1.02276532 5.9952413 0 3 C0 2.01 0 1.02 0 0 Z " fill="#A5D8F6" transform="translate(322,131)"/>
<path d="M0 0 C0.268125 0.61875 0.53625 1.2375 0.8125 1.875 C1.95556848 4.2995233 1.95556848 4.2995233 5 6 C5 6.99 5 7.98 5 9 C3.0625 8.4375 3.0625 8.4375 1 7 C0.25 3.375 0.25 3.375 0 0 Z " fill="#9CCFF3" transform="translate(220,431)"/>
<path d="M0 0 C-2.85306797 2.32472205 -5.54074837 3.7508258 -9 5 C-7.35234966 0.05704899 -4.76872479 -0.25776891 0 0 Z " fill="#A5D6F1" transform="translate(368,399)"/>
<path d="M0 0 C0.33 0 0.66 0 1 0 C1.36923077 7.38461538 1.36923077 7.38461538 -0.5 10.5 C-0.995 10.995 -1.49 11.49 -2 12 C-2 10.02 -2 8.04 -2 6 C-1.34 6 -0.68 6 0 6 C0 4.02 0 2.04 0 0 Z " fill="#9FC8F2" transform="translate(315,301)"/>
<path d="M0 0 C0.66 0 1.32 0 2 0 C0.75023244 3.65316671 0.32901247 4.78065836 -3 7 C-3 5.35 -3 3.7 -3 2 C-2.01 2 -1.02 2 0 2 C0 1.34 0 0.68 0 0 Z " fill="#A9D8F1" transform="translate(380,195)"/>
<path d="M0 0 C0.88492145 2.47778006 1.11637742 3.66056586 0.25 6.1875 C-1 8 -1 8 -4 9 C-2.80100302 5.9168649 -1.52299523 2.93720508 0 0 Z " fill="#A3D1ED" transform="translate(322,182)"/>
<path d="M0 0 C1.98 0.66 3.96 1.32 6 2 C6.33 3.65 6.66 5.3 7 7 C6.01 6.34 5.02 5.68 4 5 C4 4.34 4 3.68 4 3 C2.68 2.34 1.36 1.68 0 1 C0 0.67 0 0.34 0 0 Z " fill="#9FDFF3" transform="translate(309,116)"/>
</svg>
