<?xml version="1.0" encoding="UTF-8"?>
<svg version="1.1" xmlns="http://www.w3.org/2000/svg" width="728" height="728">
<path d="M0 0 C240.24 0 480.48 0 728 0 C728 240.24 728 480.48 728 728 C487.76 728 247.52 728 0 728 C0 487.76 0 247.52 0 0 Z " fill="#0080F0" transform="translate(0,0)"/>
<path d="M0 0 C0.84408639 -0.01118864 1.68817278 -0.02237728 2.55783755 -0.03390497 C3.47513138 -0.020705 4.39242521 -0.00750503 5.33751583 0.00609493 C6.31997986 0.00041168 7.30244389 -0.00527158 8.31467956 -0.01112705 C11.61104593 -0.02405837 14.9061912 -0.00121358 18.20249081 0.02146053 C20.56483881 0.01959681 22.92718595 0.01556091 25.28952694 0.0095129 C31.71409034 -0.00048338 38.13821426 0.02075298 44.56271386 0.04799294 C50.6142522 0.07164699 56.66580433 0.06894123 62.71737944 0.06909417 C74.72665464 0.0702821 86.73576274 0.09525641 98.74497128 0.13376522 C110.36022605 0.17098609 121.97535937 0.1923519 133.5906744 0.19528866 C134.30389264 0.19547147 135.01711089 0.19565428 135.75194181 0.19584263 C136.46399854 0.1960216 137.17605528 0.19620057 137.90968949 0.19638497 C139.3438737 0.19675043 140.77805791 0.19712281 142.21224213 0.19750214 C142.91977885 0.19768765 143.62731558 0.19787317 144.35629282 0.1980643 C155.46584731 0.20165447 166.57538342 0.22012784 177.6849189 0.23999538 C182.35035339 0.24812154 187.01578182 0.2528244 191.68122196 0.25653934 C197.99398742 0.26249579 204.30664746 0.27896146 210.61936855 0.3031435 C212.92175828 0.31050775 215.22416123 0.31465046 217.52656269 0.31512356 C236.08102538 0.32262405 254.29591874 1.22259937 272.45810604 5.24582577 C273.63896786 5.50597469 274.81982967 5.76612362 276.03647518 6.03415585 C307.63093465 13.27716285 334.33306029 27.19536319 357.64560604 49.62082577 C358.2759576 50.18801327 358.90630917 50.75520077 359.55576229 51.33957577 C381.85992957 72.00915868 395.56628772 106.78878995 396.87021542 136.80148983 C397.01063712 141.40790438 397.03218355 146.01256936 397.02060604 150.62082577 C397.01979031 151.84338573 397.01979031 151.84338573 397.01895809 153.09064388 C396.90930899 188.87528727 385.16491205 218.66834521 359.71347713 243.98166561 C344.60564691 258.45309361 344.60564691 258.45309361 336.64560604 259.62082577 C336.82898369 261.5622889 336.82898369 261.5622889 337.64560604 263.62082577 C339.47118788 264.93038412 339.47118788 264.93038412 341.80966854 265.84738827 C342.67736874 266.23418758 343.54506893 266.6209869 344.43906307 267.01950741 C345.37347225 267.42419247 346.30788143 267.82887753 347.27060604 268.24582577 C379.13382804 282.73082598 403.71745231 307.32716214 416.46591854 340.13254452 C430.42079116 378.58145652 428.77450475 422.4025839 411.62119198 459.57102108 C396.14480309 492.08847882 368.11255859 517.80845958 334.29404354 530.35520077 C333.09005917 530.77285702 331.88607479 531.19051327 330.64560604 531.62082577 C329.42099667 532.05910702 328.19638729 532.49738827 326.93466854 532.94895077 C309.22732663 539.03103777 290.33571056 541.7662066 271.66336727 541.77472591 C270.4831422 541.77910817 269.30291712 541.78349042 268.08692765 541.78800547 C264.83325739 541.79900106 261.57961413 541.80559601 258.32592964 541.81018662 C254.80856721 541.8161796 251.29122209 541.82777894 247.77387142 541.83847713 C239.29700574 541.86290097 230.82013439 541.87760517 222.34324443 541.8905372 C219.94857615 541.89425381 217.55390844 541.89822656 215.15924072 541.90228987 C200.27745739 541.92751021 185.39567305 541.94955503 170.5138731 541.96201801 C167.07406009 541.96494746 163.63424711 541.96790918 160.19443417 541.97092342 C159.33953818 541.97166947 158.48464219 541.97241553 157.60384026 541.97318418 C143.73056208 541.98585963 129.85741141 542.01912016 115.98419294 542.06072526 C101.73329663 542.10311266 87.48246578 542.12670853 73.23150659 542.13193858 C65.23278192 542.13535423 57.23425734 542.14712923 49.23559475 542.18004131 C42.43053185 542.20799779 35.62571016 542.21906012 28.82059428 542.20784585 C25.34841258 542.20264966 21.87673646 542.20560762 18.4046278 542.23031139 C14.64262833 542.25284858 10.88191425 542.24477835 7.11991024 542.22882748 C6.02002042 542.24270956 4.92013059 542.25659165 3.78691077 542.27089441 C2.77928789 542.26032247 1.77166502 542.24975053 0.73350811 542.23885822 C-0.13459028 542.24021475 -1.00268866 542.24157128 -1.89709306 542.24296892 C-5.65438182 541.29169288 -7.0700204 539.72371038 -9.35439396 536.62082577 C-10.06357081 533.64958988 -10.02614872 530.77035425 -9.98359966 527.72672939 C-9.99086687 526.82593173 -9.99813407 525.92513406 -10.00562149 524.9970395 C-10.02394677 521.96240143 -10.00648087 518.92901531 -9.98931217 515.89438534 C-9.99507036 513.70335793 -10.00300944 511.51233535 -10.01294839 509.32132292 C-10.0338862 503.28790639 -10.02347486 497.25488358 -10.0080173 491.22146535 C-9.99673613 484.7196651 -10.01415043 478.21793406 -10.02791691 471.71614742 C-10.04987369 459.71116429 -10.04703264 447.70630628 -10.03335957 435.70131575 C-10.02079078 424.6116925 -10.01749407 413.52211544 -10.02347279 402.43248653 C-10.02385471 401.69740572 -10.02423664 400.9623249 -10.02463014 400.2049689 C-10.02618678 397.22117263 -10.02777878 394.23737639 -10.02942895 391.25358017 C-10.04473023 363.25286939 -10.03084674 335.25223889 -10.00394447 307.25154049 C-9.98021572 282.36466419 -9.98233883 257.4779158 -10.00624943 232.59104061 C-10.03301205 204.64214569 -10.04364515 176.69332172 -10.02818811 148.74441576 C-10.02658448 145.76599886 -10.02502028 142.78758193 -10.02347279 139.809165 C-10.0230774 139.07578171 -10.02268201 138.34239842 -10.02227464 137.5867914 C-10.01658291 126.50306975 -10.02324676 115.41939933 -10.03587055 104.33568478 C-10.05015007 91.73526774 -10.04614613 79.13500689 -10.01946683 66.53460753 C-10.00629643 60.10161963 -10.00123134 53.66889181 -10.01771259 47.23590565 C-10.0325581 41.35254958 -10.02451293 35.46969584 -9.99782483 29.58638567 C-9.99221694 27.45254879 -9.99513155 25.3186699 -10.00720377 23.18485981 C-10.02230924 20.29426883 -10.00691882 17.40542059 -9.98359966 14.51492214 C-9.99530549 13.67757902 -10.00701132 12.84023589 -10.01907188 11.97751874 C-9.95068546 7.7648271 -9.69841281 6.07863422 -7.08721823 2.60374635 C-4.35159566 0.61879534 -3.29459906 -0.00369889 0 0 Z " fill="#FEFEFE" transform="translate(178.3543939590454,61.37917423248291)"/>
<path d="M0 0 C1.24713272 -0.0112793 2.49426544 -0.02255859 3.77919006 -0.03417969 C5.15915149 -0.02640197 6.53911062 -0.01820926 7.91906738 -0.00964355 C9.37487996 -0.01506527 10.83068706 -0.02218822 12.28648376 -0.03088379 C16.24421155 -0.04914034 20.20152269 -0.04203338 24.15925789 -0.02936745 C28.31793443 -0.019221 32.47657592 -0.02864053 36.63525391 -0.03491211 C43.63633586 -0.0421967 50.63724931 -0.03259314 57.63830566 -0.0135498 C65.68380987 0.00808465 73.72890643 0.00126958 81.77440023 -0.02085543 C88.70895366 -0.03914998 95.64338589 -0.04149586 102.57795572 -0.03110075 C106.70673669 -0.02492465 110.83532797 -0.02386207 114.96409607 -0.0372467 C145.75462796 -0.12319802 173.20153917 1.69206645 196.67102051 23.82043457 C211.81784929 39.58936525 217.60802078 60.141129 217.38903809 81.50280762 C216.69347742 104.61696397 207.97550328 125.57780808 191.02258301 141.67980957 C183.64980631 148.09330305 175.49729014 152.40643376 166.75305176 156.61340332 C159.99396157 159.60638369 159.99396157 159.60638369 154.50305176 164.29699707 C153.65317672 167.52538144 153.61850526 170.54802735 153.60852051 173.88293457 C153.58338379 175.81266113 153.58338379 175.81266113 153.55773926 177.78137207 C154.06308257 182.96521636 155.48300876 186.06992282 159.16320801 189.75012207 C162.40893091 191.81892562 165.32284026 192.66200255 169.04602051 193.63293457 C184.50616242 198.07461204 198.33554153 206.64849319 210.92102051 216.50793457 C211.7602002 217.16277832 212.59937988 217.81762207 213.46398926 218.49230957 C227.62978101 230.29307241 236.62784112 247.78262958 240.92102051 265.50793457 C241.09689697 266.20926514 241.27277344 266.9105957 241.45397949 267.63317871 C243.09763511 274.82389795 243.26780612 281.83992883 243.23352051 289.19543457 C243.22614868 291.0588147 243.22614868 291.0588147 243.21862793 292.95983887 C243.1050015 301.85708005 242.44305607 309.93504757 239.92102051 318.50793457 C239.58070801 319.72867676 239.24039551 320.94941895 238.88977051 322.20715332 C231.80378011 345.49995284 216.93284352 363.62836494 198.60852051 379.25793457 C191.16436841 385.6498542 185.70688078 392.42454543 181.92102051 401.50793457 C181.67295654 402.09010742 181.42489258 402.67228027 181.16931152 403.27209473 C178.80077788 409.12907047 177.95226034 414.90734691 177.19250488 421.14855957 C177.0835791 421.91168457 176.97465332 422.67480957 176.86242676 423.46105957 C176.77678467 424.1432959 176.69114258 424.82553223 176.60290527 425.52844238 C175.56145999 428.55172858 174.54432345 429.59590343 171.92102051 431.50793457 C168.40164005 432.12418505 164.90603813 432.05388904 161.34094238 432.0255127 C159.72573448 432.03602661 159.72573448 432.03602661 158.07789612 432.04675293 C154.51492604 432.06437249 150.95274881 432.05269544 147.38977051 432.03918457 C144.91642097 432.04187833 142.44307247 432.04575977 139.96972656 432.05078125 C134.78460615 432.0566817 129.59976126 432.04809534 124.41467285 432.02941895 C117.76285095 432.00662933 111.11194363 432.01974926 104.4601059 432.0437088 C99.35234702 432.05815172 94.2447416 432.0535676 89.13697815 432.04319763 C86.68412703 432.0405262 84.23126206 432.04381465 81.77842712 432.05311584 C78.35227466 432.06325615 74.9271727 432.04781413 71.50109863 432.0255127 C70.48383194 432.03360962 69.46656525 432.04170654 68.41847229 432.05004883 C61.5465409 431.96703345 61.5465409 431.96703345 58.32226562 429.60058594 C55.9431841 426.04761142 55.61017903 423.38062259 55.10852051 419.13293457 C52.3361779 399.70673386 42.8670975 386.76003491 28.10852051 374.25793457 C4.80963547 354.06866168 -7.20673575 327.7469218 -9.89632082 297.23547578 C-10.54564621 287.53945783 -10.37684481 277.78843565 -10.36974692 268.07598817 C-10.36933366 264.53764795 -10.38042461 260.99933892 -10.38986206 257.46101379 C-10.40635383 250.55644948 -10.41196588 243.65191933 -10.41308682 236.74733695 C-10.41404137 231.13755091 -10.41817176 225.52777604 -10.42448807 219.91799355 C-10.44205519 203.99080582 -10.45133211 188.06364488 -10.44982712 172.13644739 C-10.44974721 171.28088142 -10.44966729 170.42531545 -10.44958496 169.54382324 C-10.4495032 168.68720773 -10.44942144 167.83059221 -10.4493372 166.94801865 C-10.44852187 153.02285747 -10.46773335 139.09780381 -10.49586169 125.17267378 C-10.52455903 110.85259145 -10.53840426 96.53256168 -10.53667414 82.21244985 C-10.53600996 74.18094115 -10.54151697 66.14954573 -10.56303024 58.11806297 C-10.5811988 51.292317 -10.58562387 44.4667359 -10.5720114 37.64097627 C-10.56546448 34.15881387 -10.5654269 30.67696827 -10.5827179 27.19483566 C-10.59804854 23.42429635 -10.58894269 19.65459887 -10.57345581 15.88407898 C-10.58374294 14.77895137 -10.59403006 13.67382377 -10.60462892 12.53520745 C-10.59543133 11.52754242 -10.58623374 10.51987739 -10.57675743 9.48167706 C-10.57719217 8.61146001 -10.5776269 7.74124296 -10.57807481 6.84465569 C-9.34211258 1.05798745 -5.32759622 0.0074129 0 0 Z " fill="#007FEF" transform="translate(261.0789794921875,150.4920654296875)"/>
<path d="M0 0 C1.12535156 -0.07734375 1.12535156 -0.07734375 2.2734375 -0.15625 C5.21185345 0.66377306 6.67420672 2.14195361 8.55247307 4.50242424 C10.74689633 8.589526 10.30676296 13.12678308 10.25610352 17.65844727 C10.26325882 18.77295258 10.27041412 19.88745789 10.27778625 21.03573608 C10.29467009 24.71304534 10.27527192 28.38913515 10.25390625 32.06640625 C10.25473491 34.62418214 10.25719417 37.18195797 10.26121521 39.73973083 C10.26407296 45.09709125 10.24990333 50.45402132 10.22192383 55.8112793 C10.18985782 61.99856167 10.18989566 68.1852138 10.2071386 74.37254101 C10.22301909 80.33452817 10.21616329 86.29632248 10.19920158 92.25831413 C10.1940165 94.79127422 10.1945055 97.32425245 10.20074654 99.85721016 C10.20619247 103.39552068 10.18584194 106.93275889 10.15844727 110.47094727 C10.16497314 111.51887955 10.17149902 112.56681183 10.17822266 113.64649963 C10.11933061 118.11660873 10.08276983 120.74994414 7.71665955 124.6268158 C4.46159807 127.54188376 2.05261176 127.89129172 -2.3359375 127.859375 C-5.75506698 127.2567698 -7.30689052 125.13213933 -9.375 122.5 C-10.56539379 120.11921242 -10.50586026 118.66049525 -10.51544189 116.0032196 C-10.52115204 115.05689667 -10.52686218 114.11057373 -10.53274536 113.13557434 C-10.53386322 112.09398666 -10.53498108 111.05239899 -10.53613281 109.97924805 C-10.54109772 108.88483398 -10.54606262 107.79041992 -10.55117798 106.6628418 C-10.56582666 103.0291278 -10.57260622 99.39545747 -10.578125 95.76171875 C-10.58387435 93.2430674 -10.58963211 90.72441608 -10.59539795 88.20576477 C-10.60457018 83.59519356 -10.61086727 78.98463551 -10.6138947 74.37405747 C-10.61837369 67.590129 -10.63591313 60.80640218 -10.6648953 54.02253503 C-10.68912867 48.14604146 -10.69683964 42.26961512 -10.69857025 36.39307594 C-10.70160099 33.89359248 -10.70964359 31.39410995 -10.72275543 28.89465904 C-10.73978236 25.39926194 -10.73794357 21.90435713 -10.73144531 18.40893555 C-10.7406601 17.37342056 -10.74987488 16.33790558 -10.7593689 15.27101135 C-10.70756013 6.38885203 -10.70756013 6.38885203 -7.375 2.5 C-4.37817868 0.50211912 -3.43414854 0.14064772 0 0 Z " fill="#FDFEFE" transform="translate(378.375,437.5)"/>
<path d="M0 0 C0.92860336 -0.0049649 1.85720673 -0.00992981 2.81394958 -0.01504517 C5.89574924 -0.02968819 8.9774974 -0.0364726 12.05932617 -0.04199219 C14.19683331 -0.04774218 16.33434043 -0.05349993 18.47184753 -0.05926514 C22.95844768 -0.06978143 27.44502988 -0.07561988 31.93164062 -0.07910156 C37.68193922 -0.08458548 43.43200092 -0.10860881 49.18222523 -0.13707352 C53.59942824 -0.15569406 58.01657415 -0.16090521 62.4338131 -0.16243744 C64.55371075 -0.16546616 66.67360735 -0.17350204 68.79346657 -0.18662262 C71.75962984 -0.20366959 74.72521392 -0.20180598 77.69140625 -0.1953125 C78.56795868 -0.20452728 79.44451111 -0.21374207 80.34762573 -0.22323608 C86.15626064 -0.18338453 89.62388619 0.74522408 93.85229492 4.97363281 C95.50270359 8.01385931 95.58707519 9.74063113 95.03979492 13.16113281 C92.96544451 16.58659269 90.92202907 18.86705476 87.03979492 20.16113281 C84.00781726 20.26834689 80.99849123 20.3184093 77.96606445 20.32226562 C77.03731506 20.32723053 76.10856567 20.33219543 75.15167236 20.33731079 C72.07530988 20.35193129 68.99899895 20.35873394 65.92260742 20.36425781 C63.78652952 20.37000898 61.65045164 20.37576672 59.51437378 20.38153076 C55.03374999 20.39204017 50.55314415 20.39788336 46.07250977 20.40136719 C40.33008695 20.40685436 34.58790095 20.43088751 28.84555244 20.45933914 C24.43264064 20.47795799 20.01978599 20.48317071 15.60683823 20.48470306 C13.48973164 20.48773139 11.3726261 20.49576595 9.25555801 20.50888824 C6.29429314 20.52593414 3.33360842 20.52407205 0.37231445 20.51757812 C-0.50266693 20.52679291 -1.37764832 20.53600769 -2.27914429 20.54550171 C-7.00878511 20.51299498 -10.1141146 20.22140826 -13.96020508 17.16113281 C-16.51161323 14.09944303 -16.96020508 12.61828446 -16.96020508 8.59863281 C-15.77557148 4.52645482 -14.48712007 3.39771305 -10.96020508 1.16113281 C-7.57448176 -0.53172885 -3.72494547 0.0047177 0 0 Z " fill="#F5FAFE" transform="translate(337.960205078125,620.8388671875)"/>
<path d="M0 0 C9.51194181 2.23810396 18.23458659 14.68696182 25 21.5 C26.23869709 22.74372388 27.47762766 23.98721526 28.71679688 25.23046875 C30.97776105 27.49954687 33.23742998 29.76989615 35.49536133 32.04199219 C36.98026942 33.53565325 38.47662599 35.0191158 40.01831055 36.45410156 C41.1875 37.75 41.1875 37.75 41.8125 40.4375 C40.09531446 49.53858339 28.22891937 57.86029174 21.80639648 64.26147461 C19.85868197 66.20377265 17.9164407 68.1514314 15.97460938 70.09960938 C14.73730017 71.33625875 13.49968132 72.57259842 12.26171875 73.80859375 C11.39144295 74.6819059 11.39144295 74.6819059 10.50358582 75.57286072 C5.43836789 80.60839231 5.43836789 80.60839231 0.875 81.125 C-2.8125 80.75 -2.8125 80.75 -5.75 78.6875 C-7.8125 75.75 -7.8125 75.75 -8.6875 72.5625 C-7.28882545 66.46827518 -3.1418361 63.04177679 1.1875 58.75 C2.64915881 57.27675695 4.11003503 55.80273724 5.5703125 54.328125 C9.75543698 50.11450045 13.96454633 45.92568452 18.1875 41.75 C16.60954085 37.85956367 13.95195619 35.27304632 10.99609375 32.3984375 C10.49078629 31.8983316 9.98547882 31.39822571 9.46485901 30.88296509 C7.85626916 29.29213057 6.24113181 27.70816916 4.625 26.125 C3.00619762 24.53382224 1.38888179 22.94120299 -0.22557068 21.34561157 C-1.22890427 20.35452902 -2.23489908 19.36613192 -3.24378967 18.38070679 C-6.3625062 15.30685915 -7.68676855 13.86062776 -8.1875 9.4375 C-7.8125 5.75 -7.8125 5.75 -5.6875 2.8125 C-2.8125 0.75 -2.8125 0.75 0 0 Z " fill="#FBFDFE" transform="translate(402.8125,197.25)"/>
<path d="M0 0 C3.94661776 2.41182197 5.69855639 3.77103759 6.8125 8.3125 C5.98329929 12.07579553 5.44436818 12.96328394 2.96484375 15.68359375 C2.33215576 16.38186279 1.69946777 17.08013184 1.04760742 17.79956055 C-3.07073951 22.22529811 -7.21981104 26.61978348 -11.390625 30.99609375 C-12.07125 31.71410156 -12.751875 32.43210938 -13.453125 33.171875 C-14.06317383 33.8122168 -14.67322266 34.45255859 -15.30175781 35.11230469 C-16.99692796 36.99658525 -18.51161677 38.94991982 -20 41 C-18.8718689 42.12027588 -18.8718689 42.12027588 -17.72094727 43.26318359 C-14.93603358 46.03002167 -12.15441067 48.8001479 -9.3737793 51.57128906 C-8.16894871 52.77108532 -6.96322288 53.96998326 -5.7565918 55.16796875 C-4.02417648 56.88827923 -2.2949873 58.61177544 -0.56640625 60.3359375 C0.24611855 61.14072037 0.24611855 61.14072037 1.07505798 61.96176147 C5.85778489 66.74376653 5.85778489 66.74376653 6.375 71.3125 C6 75 6 75 3.9375 77.9375 C0.2404927 80.53327109 -1.56644342 80.71253588 -6 80 C-9.31031345 78.01381193 -11.52955349 75.40640766 -14 72.5 C-17.18254499 68.7708875 -20.63123254 65.4807894 -24.25 62.1875 C-25.37521684 61.1564866 -26.50021555 60.1252351 -27.625 59.09375 C-29.29735055 57.56011977 -30.97016439 56.02714899 -32.6484375 54.5 C-34.19835465 53.07861256 -35.72601984 51.63660105 -37.25 50.1875 C-38.58804687 48.94033203 -38.58804687 48.94033203 -39.953125 47.66796875 C-42.62522895 44.18505463 -43.28094655 42.40617833 -43 38 C-41.69319153 36.1492157 -41.69319153 36.1492157 -39.92504883 34.22924805 C-39.28522064 33.52918137 -38.64539246 32.82911469 -37.98617554 32.10783386 C-37.33073761 31.41224869 -36.67529968 30.71666351 -36 30 C-35.13467148 29.07668633 -35.13467148 29.07668633 -34.25186157 28.13471985 C-30.54827781 24.23219365 -26.765792 20.40579872 -22.98413086 16.57910156 C-21.61165483 15.18485059 -20.24549014 13.78436054 -18.88549805 12.37792969 C-16.90540087 10.331109 -14.90647194 8.30451282 -12.90234375 6.28125 C-12.29905746 5.65013306 -11.69577118 5.01901611 -11.07420349 4.36877441 C-7.47943834 0.79127747 -5.33279806 -1.00051442 0 0 Z " fill="#FCFDFE" transform="translate(329,198)"/>
<path d="M0 0 C0.74121094 0.04125 1.48242188 0.0825 2.24609375 0.125 C9.39174642 2.82420101 12.77961299 12.65535268 16.0625 18.9375 C17.29177295 21.26564353 18.52360183 23.59243907 19.7578125 25.91796875 C20.06981598 26.50623444 20.38181946 27.09450012 20.70327759 27.70059204 C22.84625613 31.71870263 25.07840132 35.67569281 27.3671875 39.61328125 C28.26727539 41.16511108 28.26727539 41.16511108 29.18554688 42.74829102 C30.33009965 44.70931058 31.48464829 46.66453933 32.65039062 48.61303711 C37.488014 56.93281085 37.488014 56.93281085 36.5625 62 C33.40460526 67.57894737 33.40460526 67.57894737 30.5625 69 C28.57421875 69.2734375 28.57421875 69.2734375 26.25 69.375 C25.11111328 69.44847656 25.11111328 69.44847656 23.94921875 69.5234375 C19.56362145 68.56162074 17.47438972 65.41676796 15.15893555 61.81933594 C13.57571714 59.13466825 12.06148127 56.42008718 10.5625 53.6875 C9.72851685 52.19041504 9.72851685 52.19041504 8.87768555 50.66308594 C4.08172836 42.02484808 -0.62611286 33.33704572 -5.29882812 24.6315918 C-5.81251953 23.67551025 -6.32621094 22.71942871 -6.85546875 21.734375 C-7.30688232 20.89100586 -7.7582959 20.04763672 -8.22338867 19.17871094 C-9.49943362 16.82095556 -9.49943362 16.82095556 -11.4375 14 C-11.89721784 9.03504727 -11.58815843 5.93832304 -8.4375 2 C-5.50496396 0.18045205 -3.42849069 -0.2852124 0 0 Z " fill="#FBFDFE" transform="translate(310.4375,434)"/>
<path d="M0 0 C2.75329021 1.79562405 4.52627461 3.05254922 6 6 C6.49852636 12.21496198 5.4479886 16.14574673 2.3125 21.5625 C1.91820801 22.2743042 1.52391602 22.9861084 1.11767578 23.71948242 C-0.23828189 26.15600934 -1.61928062 28.57742753 -3 31 C-4.08327665 32.93159375 -5.16525498 34.86391606 -6.24609375 36.796875 C-8.99334633 41.69801504 -11.76804565 46.5828731 -14.55517578 51.46142578 C-15.79726804 53.64379742 -17.02565313 55.83282652 -18.24609375 58.02734375 C-18.84550781 59.09082031 -19.44492187 60.15429688 -20.0625 61.25 C-20.54847656 62.12140625 -21.03445313 62.9928125 -21.53515625 63.890625 C-23.15074666 66.21707519 -24.57036857 67.55050398 -27 69 C-31.787821 69.53198011 -33.86402545 69.72509014 -37.9375 67.125 C-40.53321793 64.45062395 -40.93108176 63.44139242 -41.51171875 59.72265625 C-41.40621602 52.923082 -37.13543758 47.14923168 -33.8125 41.4375 C-33.08214779 40.15657584 -32.35324 38.87482709 -31.62573242 37.59228516 C-30.14620131 34.98818305 -28.65784343 32.38940743 -27.1640625 29.79345703 C-25.13304987 26.25124209 -23.16895481 22.67719966 -21.21875 19.08984375 C-20.35286255 17.51021851 -20.35286255 17.51021851 -19.46948242 15.89868164 C-18.38892347 13.92686455 -17.31579573 11.95095142 -16.2512207 9.97045898 C-12.21164679 2.7026871 -8.91968333 -1.11496042 0 0 Z " fill="#FBFDFE" transform="translate(453,434)"/>
<path d="M0 0 C4.10703441 0.85563217 5.55401113 2.24378009 8 5.625 C8.34140328 10.43342958 7.7323216 14.42398363 6.39526367 19.03173828 C6.04457321 20.25635773 5.69388275 21.48097717 5.33256531 22.7427063 C4.94477674 24.06036252 4.5565677 25.37789505 4.16796875 26.6953125 C3.77097837 28.06320731 3.37461105 29.43128308 2.97883606 30.79953003 C2.14995583 33.65735142 1.31459908 36.51317247 0.47436523 39.36767578 C-0.59944011 43.01708649 -1.65847067 46.67058421 -2.71288013 50.32563972 C-3.52854556 53.14797942 -4.35122554 55.96823617 -5.17609215 58.78789902 C-5.56915702 60.13406975 -5.96024784 61.48081858 -6.34928322 62.82815933 C-6.89487946 64.71316413 -7.4507783 66.5951776 -8.00708008 68.47705078 C-8.32018631 69.54625763 -8.63329254 70.61546448 -8.95588684 71.71707153 C-10.56618557 76.20186658 -12.00096908 78.95897939 -16 81.625 C-20.03621805 82.23920709 -21.52111041 81.96855123 -24.875 79.5625 C-27.60877487 75.78345827 -27.36451558 74.25687646 -27 69.625 C-26.21431449 66.02984583 -25.17526747 62.52605043 -24.11328125 59.00390625 C-23.81439499 57.9863475 -23.51550873 56.96878876 -23.20756531 55.9203949 C-22.25135233 52.67341829 -21.28200572 49.43052921 -20.3125 46.1875 C-19.6795018 44.04256446 -19.04733253 41.89738412 -18.41601562 39.75195312 C-16.90508594 34.62661749 -15.36831243 29.50945103 -13.82476807 24.39385986 C-13.06238589 21.83443801 -12.3276254 19.2690564 -11.60302734 16.69873047 C-11.18730005 15.26656511 -10.77145684 13.83443338 -10.35546875 12.40234375 C-10.01539795 11.19698975 -9.67532715 9.99163574 -9.32495117 8.74975586 C-7.38078542 4.16464853 -4.9823034 1.03797987 0 0 Z " fill="#FAFDFE" transform="translate(375,197.375)"/>
<path d="M0 0 C1.14491409 -0.01283524 2.28982819 -0.02567047 3.46943665 -0.03889465 C4.712108 -0.04628159 5.95477936 -0.05366852 7.23510742 -0.0612793 C8.50778976 -0.06935104 9.78047211 -0.07742279 11.09172058 -0.08573914 C13.78937429 -0.09959031 16.48690536 -0.11060365 19.18457031 -0.11816406 C22.63475867 -0.12922073 26.08430066 -0.16361141 29.53426075 -0.20333576 C32.83031217 -0.23581778 36.12642034 -0.24028239 39.42260742 -0.2487793 C40.65920609 -0.26628738 41.89580475 -0.28379547 43.1698761 -0.30183411 C44.32424667 -0.29890854 45.47861725 -0.29598297 46.66796875 -0.29296875 C47.68119705 -0.29883499 48.69442535 -0.30470123 49.73835754 -0.31074524 C53.27908646 0.30830665 54.95942966 1.71546835 57.52807617 4.17700195 C59.09869986 7.97519289 58.88997924 11.30081558 57.34057617 15.05200195 C54.8191409 18.00816744 52.7970249 19.04704843 48.91676331 19.44442749 C47.9281279 19.45205109 46.93949249 19.45967468 45.92089844 19.4675293 C44.79615616 19.480289 43.67141388 19.49304871 42.5125885 19.50619507 C41.30211349 19.50842072 40.09163849 19.51064636 38.84448242 19.51293945 C36.97299782 19.52292465 36.97299782 19.52292465 35.06370544 19.53311157 C32.42497485 19.54323741 29.78665632 19.54879383 27.14794922 19.54760742 C23.7739911 19.54740415 20.40087451 19.57471951 17.02711582 19.60915184 C13.79960308 19.63679107 10.57209745 19.63557048 7.34448242 19.63793945 C6.13603165 19.65231049 4.92758087 19.66668152 3.68251038 19.68148804 C2.55461594 19.67533478 1.4267215 19.66918152 0.26464844 19.6628418 C-0.72478256 19.66569183 -1.71421356 19.66854187 -2.73362732 19.67147827 C-6.23510806 19.03918761 -7.91930678 17.6029946 -10.47192383 15.17700195 C-12.02216847 12.07651267 -11.76184398 9.59805978 -11.47192383 6.17700195 C-8.084684 0.98323422 -6.0163897 0.05859137 0 0 Z " fill="#FDFEFE" transform="translate(354.471923828125,659.822998046875)"/>
<path d="M0 0 C0.33 0.99 0.66 1.98 1 3 C0.360625 3.474375 -0.27875 3.94875 -0.9375 4.4375 C-3.84850272 8.05420035 -3.80649782 11.47204894 -4 16 C-4.99 16 -5.98 16 -7 16 C-8.32 14.35 -9.64 12.7 -11 11 C-7.37 7.37 -3.74 3.74 0 0 Z " fill="#0273EE" transform="translate(319,227)"/>
<path d="M0 0 C0.33 0.99 0.66 1.98 1 3 C-0.57826815 4.46381359 -2.16282229 5.92085163 -3.75 7.375 C-4.63171875 8.18710937 -5.5134375 8.99921875 -6.421875 9.8359375 C-8.59802521 11.6625848 -10.40820119 12.89787994 -13 14 C-8.88380164 9.08064098 -4.59589638 4.47352044 0 0 Z " fill="#026BEE" transform="translate(570,551)"/>
<path d="M0 0 C0.33 0.66 0.66 1.32 1 2 C-0.96609219 7.4613672 -3.821362 12.16294218 -7 17 C-8 14 -8 14 -6.34765625 10.64453125 C-5.59622298 9.36110983 -4.83403499 8.08393866 -4.0625 6.8125 C-3.48338867 5.83120117 -3.48338867 5.83120117 -2.89257812 4.83007812 C-1.93746912 3.21464684 -0.96989934 1.60659475 0 0 Z " fill="#076EEE" transform="translate(457,451)"/>
<path d="M0 0 C0 0.99 0 1.98 0 3 C-6.5625 6.48214286 -6.5625 6.48214286 -10.9375 5.1875 C-11.948125 4.795625 -12.95875 4.40375 -14 4 C-14 3.34 -14 2.68 -14 2 C-13.01 2.33 -12.02 2.66 -11 3 C-6.02629577 3.39899619 -6.02629577 3.39899619 -1.5625 1.5 C-1.046875 1.005 -0.53125 0.51 0 0 Z " fill="#076DEF" transform="translate(334,274)"/>
<path d="M0 0 C0.103125 0.61875 0.20625 1.2375 0.3125 1.875 C0.87525373 4.36526484 0.87525373 4.36526484 4 6 C3.67 6.99 3.34 7.98 3 9 C1.02 7.35 -0.96 5.7 -3 4 C-2.01 2.68 -1.02 1.36 0 0 Z " fill="#1477EF" transform="translate(311,235)"/>
<path d="M0 0 C-0.63808594 0.33773437 -1.27617188 0.67546875 -1.93359375 1.0234375 C-2.75988281 1.46945312 -3.58617187 1.91546875 -4.4375 2.375 C-5.26121094 2.81585937 -6.08492187 3.25671875 -6.93359375 3.7109375 C-9.13466578 4.83418559 -9.13466578 4.83418559 -10 7 C-10.66 7 -11.32 7 -12 7 C-11.77734375 5.14453125 -11.77734375 5.14453125 -11 3 C-9.00390625 1.69921875 -9.00390625 1.69921875 -6.5625 0.6875 C-5.75941406 0.34074219 -4.95632813 -0.00601563 -4.12890625 -0.36328125 C-2 -1 -2 -1 0 0 Z " fill="#0770EF" transform="translate(530,585)"/>
<path d="M0 0 C0.28875 0.598125 0.5775 1.19625 0.875 1.8125 C2.04742026 4.19327792 2.04742026 4.19327792 4 7 C2.35 6.67 0.7 6.34 -1 6 C-1.33 4.35 -1.66 2.7 -2 1 C-1.34 0.67 -0.68 0.34 0 0 Z " fill="#0672EB" transform="translate(517,320)"/>
<path d="M0 0 C3.7952131 1.49097658 5.61042731 3.75700849 8 7 C5 7 5 7 2.3125 4.625 C0 2 0 2 0 0 Z " fill="#217FEF" transform="translate(309,265)"/>
</svg>
