<?xml version="1.0" encoding="UTF-8"?>
<svg version="1.1" xmlns="http://www.w3.org/2000/svg" width="292" height="302">
<path d="M0 0 C96.36 0 192.72 0 292 0 C292 99.66 292 199.32 292 302 C195.64 302 99.28 302 0 302 C0 202.34 0 102.68 0 0 Z " fill="#FEFEFE" transform="translate(0,0)"/>
<path d="M0 0 C0.90319473 -0.00671722 1.80638947 -0.01343445 2.73695374 -0.02035522 C5.73102305 -0.03938472 8.72486804 -0.04326431 11.71899414 -0.04541016 C13.81531362 -0.05184314 15.9116322 -0.05857188 18.00794983 -0.06558228 C22.41547721 -0.0775734 26.8229262 -0.08126206 31.23046875 -0.08007812 C36.82006046 -0.07987677 42.40913313 -0.10697812 47.99860287 -0.14162254 C52.33926083 -0.16412416 56.67979947 -0.16790836 61.02050972 -0.16685867 C63.07694825 -0.16918758 65.1333915 -0.17785401 67.18977165 -0.19352341 C77.80254292 -0.26670481 88.04229964 0.1326314 98.49853516 2.06933594 C99.76811648 2.30206679 99.76811648 2.30206679 101.06334591 2.53949928 C105.88767587 3.53382174 109.98487909 5.00405512 114.31123257 7.36544228 C116.3081489 8.46485798 116.3081489 8.46485798 119.56665039 9.60302734 C124.15130797 11.81348725 127.40974126 14.7941314 131.06665039 18.29052734 C131.76274414 18.94666016 132.45883789 19.60279297 133.17602539 20.27880859 C143.8056612 30.56877559 149.43537792 41.92762281 150.26977539 56.94677734 C150.49134333 75.11534854 146.43678146 88.61748969 135.28930664 103.19677734 C134.6840918 104.23318359 134.6840918 104.23318359 134.06665039 105.29052734 C135.19940622 108.68879482 135.84684134 109.08540761 138.69165039 111.04052734 C149.64611798 119.02693954 156.9749909 128.6457026 159.57836914 142.15771484 C160.26134996 146.53971978 160.82622957 150.86095591 161.06665039 155.29052734 C161.14592773 156.43521484 161.14592773 156.43521484 161.22680664 157.60302734 C161.82809533 173.49796311 156.4709548 187.94271142 146.24243164 199.98193359 C140.40046058 206.18050612 134.08290932 210.56451409 126.44165039 214.22802734 C125.52790649 214.67021606 125.52790649 214.67021606 124.59570312 215.12133789 C120.02748817 217.18553063 115.9858318 217.78367026 111.06665039 218.29052734 C110.73665039 218.62052734 110.40665039 218.95052734 110.06665039 219.29052734 C107.37429263 219.52731451 104.70166883 219.7125076 102.00415039 219.85302734 C101.24553711 219.89621094 100.48692383 219.93939453 99.70532227 219.98388672 C97.82599601 220.09026368 95.94634795 220.19092668 94.06665039 220.29052734 C93.93709961 221.42941406 93.93709961 221.42941406 93.80493164 222.59130859 C93.38323077 225.57416518 92.92444006 228.40090255 92.06665039 231.29052734 C91.22102539 231.78552734 90.37540039 232.28052734 89.50415039 232.79052734 C88.69977539 233.28552734 87.89540039 233.78052734 87.06665039 234.29052734 C86.64606996 237.12391133 86.56711204 239.83346056 86.59790039 242.69677734 C86.06665039 245.29052734 86.06665039 245.29052734 83.88330078 246.92773438 C80.80377523 248.41771545 78.86734423 248.67690887 75.46899414 248.68896484 C74.4203418 248.69283203 73.37168945 248.69669922 72.29125977 248.70068359 C71.20651367 248.68908203 70.12176758 248.67748047 69.00415039 248.66552734 C67.91553711 248.67712891 66.82692383 248.68873047 65.70532227 248.70068359 C64.65795898 248.69681641 63.6105957 248.69294922 62.53149414 248.68896484 C61.57879639 248.68558105 60.62609863 248.68219727 59.64453125 248.67871094 C56.6245098 248.22394873 55.24701494 247.40311829 53.06665039 245.29052734 C52.45727539 242.59130859 52.45727539 242.59130859 52.31665039 239.60302734 C52.25993164 238.60916016 52.20321289 237.61529297 52.14477539 236.59130859 C52.11899414 235.83205078 52.09321289 235.07279297 52.06665039 234.29052734 C51.28290039 234.02240234 50.49915039 233.75427734 49.69165039 233.47802734 C47.06665039 232.29052734 47.06665039 232.29052734 45.06665039 229.29052734 C44.87133789 227.02880859 44.87133789 227.02880859 44.94165039 224.60302734 C44.95969727 223.79478516 44.97774414 222.98654297 44.99633789 222.15380859 C45.01954102 221.53892578 45.04274414 220.92404297 45.06665039 220.29052734 C44.11113281 220.29576416 43.15561523 220.30100098 42.17114258 220.30639648 C31.46930106 220.3595376 20.76843811 220.35382583 10.06665039 220.29052734 C8.8984375 220.28472656 7.73022461 220.27892578 6.52661133 220.27294922 C3.74647118 220.24634501 0.97062126 220.18509637 -1.80834961 220.10302734 C-2.97092285 220.09444702 -2.97092285 220.09444702 -4.15698242 220.08569336 C-8.0065644 219.92741328 -9.80844423 219.38809932 -12.87866211 216.98974609 C-15.61609605 213.39361139 -16.05245352 210.59303315 -16.08483887 206.15393066 C-16.09318253 205.3380397 -16.10152618 204.52214874 -16.11012268 203.68153381 C-16.1143071 202.79517746 -16.11849152 201.90882111 -16.12280273 200.99560547 C-16.13109604 200.05535019 -16.13938934 199.11509491 -16.14793396 198.14634705 C-16.16531975 196.10620293 -16.18049057 194.06603901 -16.19371033 192.02586365 C-16.21475256 188.79831763 -16.24177394 185.570871 -16.27038574 182.34338379 C-16.34019296 174.32815496 -16.39960738 166.31285494 -16.45941162 158.29754639 C-16.51034865 151.52363393 -16.56517853 144.74977487 -16.62522888 137.97593689 C-16.65180894 134.79407335 -16.67261946 131.61220481 -16.6932373 128.43029785 C-16.70984029 126.48201254 -16.72671213 124.53372949 -16.74389648 122.58544922 C-16.7480809 121.69909286 -16.75226532 120.81273651 -16.75657654 119.89952087 C-16.7649202 119.08362991 -16.77326385 118.26773895 -16.78186035 117.42712402 C-16.78701408 116.72069511 -16.79216782 116.0142662 -16.79747772 115.28643036 C-16.94030868 113.18830146 -17.36413183 111.31133678 -17.93334961 109.29052734 C-17.27334961 109.29052734 -16.61334961 109.29052734 -15.93334961 109.29052734 C-16.09834961 108.22447266 -16.26334961 107.15841797 -16.43334961 106.06005859 C-17.14517014 100.37176034 -17.00267126 94.70052995 -16.93334961 88.97802734 C-16.90786624 86.83615054 -16.88682452 84.69421492 -16.87084961 82.55224609 C-16.85924805 81.61340576 -16.84764648 80.67456543 -16.83569336 79.70727539 C-16.82715144 77.14634408 -16.82715144 77.14634408 -17.93334961 74.29052734 C-17.619438 72.95248834 -17.28278244 71.61973221 -16.93334961 70.29052734 C-16.83419401 68.34735821 -16.78787078 66.40122527 -16.77563477 64.45556641 C-16.76537262 63.28044495 -16.75511047 62.10532349 -16.74453735 60.89459229 C-16.73358536 58.99456451 -16.73358536 58.99456451 -16.72241211 57.05615234 C-16.70152848 55.05868035 -16.68062733 53.06120836 -16.65871239 51.06374741 C-16.60567949 46.14559365 -16.56141405 41.22743468 -16.53198242 36.30908203 C-16.51502468 33.54882967 -16.49027324 30.78885288 -16.4571228 28.02874756 C-16.42627899 25.43336144 -16.40676326 22.83780925 -16.40005493 20.24224854 C-16.30766138 13.61810824 -16.05275663 8.21058279 -12.93334961 2.29052734 C-9.17745392 -0.58457683 -4.50889576 -0.00480624 0 0 Z " fill="#FDFEFE" transform="translate(79.933349609375,28.70947265625)"/>
<path d="M0 0 C7.63142172 -0.02549801 15.26283233 -0.04292872 22.89428711 -0.05493164 C25.4867392 -0.05993918 28.0791885 -0.06674714 30.67163086 -0.07543945 C34.4126047 -0.08766251 38.15354098 -0.09326426 41.89453125 -0.09765625 C43.04081497 -0.10281754 44.18709869 -0.10797882 45.36811829 -0.11329651 C58.88985053 -0.11422471 69.94757337 0.45948851 81 9 C87.2741663 15.42007714 89.15823183 21.18195106 89.375 29.9375 C89.15934648 39.10277466 87.09406237 46.81283466 80.50390625 53.5234375 C76.09612482 57.53421322 71.26710874 60.24489697 66 63 C66 66.63 66 70.26 66 74 C66.86753906 74.27328125 67.73507813 74.5465625 68.62890625 74.828125 C80.63576647 79.00200457 89.24509705 84.39927312 95.73828125 95.33984375 C99.95290841 104.22579141 100.29409177 114.71704116 98.375 124.3125 C94.93483012 133.53841014 89.14211074 140.45412902 82.58276367 147.64672852 C76.8237853 154.03361967 74.79450366 159.61648901 72 168 C57.48 168 42.96 168 28 168 C26.35 164.04 24.7 160.08 23 156 C20.52845258 152.32014051 18.07836914 149.14320096 15.05078125 145.93359375 C6.15022849 136.45662424 0.80732204 125.42753625 0.58813477 112.29467773 C0.55926965 111.18710334 0.55926965 111.18710334 0.5298214 110.0571537 C0.46965398 107.62024786 0.42370683 105.18332722 0.37890625 102.74609375 C0.34100462 101.01158677 0.30287841 99.27708469 0.26454163 97.54258728 C-0.12797887 78.6211191 -0.11655189 59.69811655 -0.06866455 40.77355957 C-0.0581405 36.14526867 -0.05380702 31.51697147 -0.04882812 26.88867188 C-0.03833615 17.92576589 -0.02144336 8.96288605 0 0 Z " fill="#FCFDFE" transform="translate(99,68)"/>
<path d="M0 0 C0.90319473 -0.00671722 1.80638947 -0.01343445 2.73695374 -0.02035522 C5.73102305 -0.03938472 8.72486804 -0.04326431 11.71899414 -0.04541016 C13.81531362 -0.05184314 15.9116322 -0.05857188 18.00794983 -0.06558228 C22.41547721 -0.0775734 26.8229262 -0.08126206 31.23046875 -0.08007812 C36.82006046 -0.07987677 42.40913313 -0.10697812 47.99860287 -0.14162254 C52.33926083 -0.16412416 56.67979947 -0.16790836 61.02050972 -0.16685867 C63.07694825 -0.16918758 65.1333915 -0.17785401 67.18977165 -0.19352341 C77.80254292 -0.26670481 88.04229964 0.1326314 98.49853516 2.06933594 C99.76811648 2.30206679 99.76811648 2.30206679 101.06334591 2.53949928 C105.88767587 3.53382174 109.98487909 5.00405512 114.31123257 7.36544228 C116.3081489 8.46485798 116.3081489 8.46485798 119.56665039 9.60302734 C124.15130797 11.81348725 127.40974126 14.7941314 131.06665039 18.29052734 C131.76274414 18.94666016 132.45883789 19.60279297 133.17602539 20.27880859 C143.8056612 30.56877559 149.43537792 41.92762281 150.26977539 56.94677734 C150.49134333 75.11534854 146.43678146 88.61748969 135.28930664 103.19677734 C134.6840918 104.23318359 134.6840918 104.23318359 134.06665039 105.29052734 C135.19940622 108.68879482 135.84684134 109.08540761 138.69165039 111.04052734 C149.64611798 119.02693954 156.9749909 128.6457026 159.57836914 142.15771484 C160.26134996 146.53971978 160.82622957 150.86095591 161.06665039 155.29052734 C161.14592773 156.43521484 161.14592773 156.43521484 161.22680664 157.60302734 C161.82809533 173.49796311 156.4709548 187.94271142 146.24243164 199.98193359 C140.40046058 206.18050612 134.08290932 210.56451409 126.44165039 214.22802734 C125.52790649 214.67021606 125.52790649 214.67021606 124.59570312 215.12133789 C120.02748817 217.18553063 115.9858318 217.78367026 111.06665039 218.29052734 C110.73665039 218.62052734 110.40665039 218.95052734 110.06665039 219.29052734 C107.37429263 219.52731451 104.70166883 219.7125076 102.00415039 219.85302734 C101.24553711 219.89621094 100.48692383 219.93939453 99.70532227 219.98388672 C97.82599601 220.09026368 95.94634795 220.19092668 94.06665039 220.29052734 C93.93709961 221.42941406 93.93709961 221.42941406 93.80493164 222.59130859 C93.38323077 225.57416518 92.92444006 228.40090255 92.06665039 231.29052734 C91.22102539 231.78552734 90.37540039 232.28052734 89.50415039 232.79052734 C88.69977539 233.28552734 87.89540039 233.78052734 87.06665039 234.29052734 C86.64606996 237.12391133 86.56711204 239.83346056 86.59790039 242.69677734 C86.06665039 245.29052734 86.06665039 245.29052734 83.88330078 246.92773438 C80.80377523 248.41771545 78.86734423 248.67690887 75.46899414 248.68896484 C74.4203418 248.69283203 73.37168945 248.69669922 72.29125977 248.70068359 C71.20651367 248.68908203 70.12176758 248.67748047 69.00415039 248.66552734 C67.91553711 248.67712891 66.82692383 248.68873047 65.70532227 248.70068359 C64.65795898 248.69681641 63.6105957 248.69294922 62.53149414 248.68896484 C61.57879639 248.68558105 60.62609863 248.68219727 59.64453125 248.67871094 C56.6245098 248.22394873 55.24701494 247.40311829 53.06665039 245.29052734 C52.45727539 242.59130859 52.45727539 242.59130859 52.31665039 239.60302734 C52.25993164 238.60916016 52.20321289 237.61529297 52.14477539 236.59130859 C52.11899414 235.83205078 52.09321289 235.07279297 52.06665039 234.29052734 C51.28290039 234.02240234 50.49915039 233.75427734 49.69165039 233.47802734 C47.06665039 232.29052734 47.06665039 232.29052734 45.06665039 229.29052734 C44.87133789 227.02880859 44.87133789 227.02880859 44.94165039 224.60302734 C44.95969727 223.79478516 44.97774414 222.98654297 44.99633789 222.15380859 C45.01954102 221.53892578 45.04274414 220.92404297 45.06665039 220.29052734 C44.11113281 220.29576416 43.15561523 220.30100098 42.17114258 220.30639648 C31.46930106 220.3595376 20.76843811 220.35382583 10.06665039 220.29052734 C8.8984375 220.28472656 7.73022461 220.27892578 6.52661133 220.27294922 C3.74647118 220.24634501 0.97062126 220.18509637 -1.80834961 220.10302734 C-2.97092285 220.09444702 -2.97092285 220.09444702 -4.15698242 220.08569336 C-8.0065644 219.92741328 -9.80844423 219.38809932 -12.87866211 216.98974609 C-15.61609605 213.39361139 -16.05245352 210.59303315 -16.08483887 206.15393066 C-16.09318253 205.3380397 -16.10152618 204.52214874 -16.11012268 203.68153381 C-16.1143071 202.79517746 -16.11849152 201.90882111 -16.12280273 200.99560547 C-16.13109604 200.05535019 -16.13938934 199.11509491 -16.14793396 198.14634705 C-16.16531975 196.10620293 -16.18049057 194.06603901 -16.19371033 192.02586365 C-16.21475256 188.79831763 -16.24177394 185.570871 -16.27038574 182.34338379 C-16.34019296 174.32815496 -16.39960738 166.31285494 -16.45941162 158.29754639 C-16.51034865 151.52363393 -16.56517853 144.74977487 -16.62522888 137.97593689 C-16.65180894 134.79407335 -16.67261946 131.61220481 -16.6932373 128.43029785 C-16.70984029 126.48201254 -16.72671213 124.53372949 -16.74389648 122.58544922 C-16.7480809 121.69909286 -16.75226532 120.81273651 -16.75657654 119.89952087 C-16.7649202 119.08362991 -16.77326385 118.26773895 -16.78186035 117.42712402 C-16.78701408 116.72069511 -16.79216782 116.0142662 -16.79747772 115.28643036 C-16.94030868 113.18830146 -17.36413183 111.31133678 -17.93334961 109.29052734 C-17.27334961 109.29052734 -16.61334961 109.29052734 -15.93334961 109.29052734 C-16.09834961 108.22447266 -16.26334961 107.15841797 -16.43334961 106.06005859 C-17.14517014 100.37176034 -17.00267126 94.70052995 -16.93334961 88.97802734 C-16.90786624 86.83615054 -16.88682452 84.69421492 -16.87084961 82.55224609 C-16.85924805 81.61340576 -16.84764648 80.67456543 -16.83569336 79.70727539 C-16.82715144 77.14634408 -16.82715144 77.14634408 -17.93334961 74.29052734 C-17.619438 72.95248834 -17.28278244 71.61973221 -16.93334961 70.29052734 C-16.83419401 68.34735821 -16.78787078 66.40122527 -16.77563477 64.45556641 C-16.76537262 63.28044495 -16.75511047 62.10532349 -16.74453735 60.89459229 C-16.73358536 58.99456451 -16.73358536 58.99456451 -16.72241211 57.05615234 C-16.70152848 55.05868035 -16.68062733 53.06120836 -16.65871239 51.06374741 C-16.60567949 46.14559365 -16.56141405 41.22743468 -16.53198242 36.30908203 C-16.51502468 33.54882967 -16.49027324 30.78885288 -16.4571228 28.02874756 C-16.42627899 25.43336144 -16.40676326 22.83780925 -16.40005493 20.24224854 C-16.30766138 13.61810824 -16.05275663 8.21058279 -12.93334961 2.29052734 C-9.17745392 -0.58457683 -4.50889576 -0.00480624 0 0 Z M-11.93334961 5.29052734 C-12.03120082 7.99644979 -12.06328641 10.67683911 -12.05360413 13.38319397 C-12.05445855 14.24159439 -12.05531298 15.09999481 -12.05619329 15.98440737 C-12.05785073 18.88342445 -12.05232243 21.78238466 -12.046875 24.68139648 C-12.04659316 26.75048318 -12.0467508 28.81956998 -12.0473175 30.88865662 C-12.0476056 36.52478997 -12.04170694 42.16090225 -12.03474355 47.79703069 C-12.028512 53.68006996 -12.02790637 59.56310967 -12.02671814 65.44615173 C-12.02360423 76.59506962 -12.01539005 87.74397776 -12.00536865 98.89289135 C-11.99420935 111.58191003 -11.98869753 124.27092916 -11.98367321 136.95995152 C-11.97320748 163.07014888 -11.9556069 189.18033757 -11.93334961 215.29052734 C3.35776488 215.36084992 18.64887187 215.41362877 33.94011211 215.44596386 C41.04134744 215.46138186 48.14248184 215.4823734 55.24365234 215.5168457 C61.43862841 215.54690439 67.63353132 215.56613909 73.82857829 215.57279283 C77.10377093 215.57667748 80.37870763 215.58731397 83.65384483 215.60771751 C87.32501729 215.62966743 90.9957641 215.6324869 94.66699219 215.63110352 C95.73299149 215.64188934 96.79899078 215.65267517 97.89729309 215.66378784 C114.07608319 215.59832065 129.16838655 210.47711933 141.06665039 199.29052734 C153.87246723 185.73003989 157.75099347 171.35978 157.37524414 153.24365234 C156.74799474 139.53265709 150.27057003 126.38714177 140.24243164 117.04052734 C134.78787225 112.65337724 128.87565565 109.08237083 122.06665039 107.29052734 C122.06665039 106.63052734 122.06665039 105.97052734 122.06665039 105.29052734 C123.41243164 104.93667969 123.41243164 104.93667969 124.78540039 104.57568359 C132.50635408 101.5516434 139.52253229 91.71574527 143.06665039 84.29052734 C147.48639115 70.40462539 147.65224482 50.46171619 141.06665039 37.29052734 C132.796823 22.76075467 119.1032701 12.07571744 103.06665039 7.29052734 C89.78276612 4.15390358 76.81846758 3.87666657 63.22290039 3.96240234 C61.07483046 3.9654676 58.92675852 3.96733788 56.77868652 3.96807861 C52.31779151 3.97264207 47.85708104 3.98692723 43.39624023 4.00927734 C37.66735518 4.03783292 31.9386129 4.0485206 26.20966339 4.05295944 C21.7935035 4.05710084 17.37737259 4.06690308 12.96122742 4.07883453 C10.84641246 4.08453992 8.73159474 4.08929774 6.61677551 4.0931015 C3.68269854 4.09993243 0.74873757 4.11354224 -2.18530273 4.12939453 C-3.06202133 4.13051239 -3.93873993 4.13163025 -4.84202576 4.13278198 C-8.69873589 3.78217579 -8.69873589 3.78217579 -11.93334961 5.29052734 Z " fill="#4B93E2" transform="translate(79.933349609375,28.70947265625)"/>
<path d="M0 0 C7.63142172 -0.02549801 15.26283233 -0.04292872 22.89428711 -0.05493164 C25.4867392 -0.05993918 28.0791885 -0.06674714 30.67163086 -0.07543945 C34.4126047 -0.08766251 38.15354098 -0.09326426 41.89453125 -0.09765625 C43.04081497 -0.10281754 44.18709869 -0.10797882 45.36811829 -0.11329651 C58.88985053 -0.11422471 69.94757337 0.45948851 81 9 C87.2741663 15.42007714 89.15823183 21.18195106 89.375 29.9375 C89.15934648 39.10277466 87.09406237 46.81283466 80.50390625 53.5234375 C76.09612482 57.53421322 71.26710874 60.24489697 66 63 C66 66.63 66 70.26 66 74 C66.86753906 74.27328125 67.73507813 74.5465625 68.62890625 74.828125 C80.63576647 79.00200457 89.24509705 84.39927312 95.73828125 95.33984375 C99.95290841 104.22579141 100.29409177 114.71704116 98.375 124.3125 C94.93483012 133.53841014 89.14211074 140.45412902 82.58276367 147.64672852 C76.8237853 154.03361967 74.79450366 159.61648901 72 168 C57.48 168 42.96 168 28 168 C26.35 164.04 24.7 160.08 23 156 C20.52845258 152.32014051 18.07836914 149.14320096 15.05078125 145.93359375 C6.15022849 136.45662424 0.80732204 125.42753625 0.58813477 112.29467773 C0.55926965 111.18710334 0.55926965 111.18710334 0.5298214 110.0571537 C0.46965398 107.62024786 0.42370683 105.18332722 0.37890625 102.74609375 C0.34100462 101.01158677 0.30287841 99.27708469 0.26454163 97.54258728 C-0.12797887 78.6211191 -0.11655189 59.69811655 -0.06866455 40.77355957 C-0.0581405 36.14526867 -0.05380702 31.51697147 -0.04882812 26.88867188 C-0.03833615 17.92576589 -0.02144336 8.96288605 0 0 Z M5 7 C4.69099059 9.03983147 4.69099059 9.03983147 4.73257446 11.41844177 C4.72404449 12.3476796 4.71551453 13.27691742 4.70672607 14.23431396 C4.70763245 15.25712463 4.70853882 16.2799353 4.70947266 17.33374023 C4.70275543 18.40876297 4.69603821 19.48378571 4.68911743 20.59138489 C4.67004216 24.16383428 4.66620744 27.73609651 4.6640625 31.30859375 C4.65763766 33.79045184 4.65090954 36.27230917 4.64389038 38.75416565 C4.6318913 43.96885939 4.62821191 49.18348678 4.62939453 54.39819336 C4.63072279 61.06272676 4.6023749 67.7267665 4.56785011 74.39121914 C4.54554058 79.52411325 4.54155836 84.65690499 4.54261398 89.78984261 C4.54026107 92.24529554 4.5314551 94.70075143 4.51594925 97.15615654 C4.49622257 100.60497267 4.50215591 104.05287628 4.51416016 107.50170898 C4.50292114 108.50630157 4.49168213 109.51089417 4.48010254 110.54592896 C4.59513995 123.63650916 10.1224692 133.87230766 18.9375 143.25 C23.09682255 147.75129362 25.68727703 152.69280672 28.359375 158.1796875 C30.01207667 161.02076038 31.16166305 162.39691608 34 164 C38.80628335 164.59221024 38.80628335 164.59221024 42.9375 162.5 C43.288125 162.005 43.63875 161.51 44 161 C43.67 160.01 43.34 159.02 43 158 C42.77295682 154.6303909 42.60695542 151.26713356 42.48242188 147.89257812 C42.29849524 144.14810946 42.05911792 141.19288325 40 138 C39.34 138.33 38.68 138.66 38 139 C30.77043207 139.58302967 30.77043207 139.58302967 27.6875 137.25 C26.8521875 136.13625 26.8521875 136.13625 26 135 C25.46375 134.360625 24.9275 133.72125 24.375 133.0625 C22.85371141 130.78056712 21.97556915 128.56086901 21 126 C20.46375 125.13375 19.9275 124.2675 19.375 123.375 C17.42230442 118.58201995 17.75451945 114.10963228 18 109 C23.76783005 107.35204856 23.76783005 107.35204856 26.8125 108.953125 C31.01410656 112.36693033 33.8523745 116.44156237 36.640625 121.046875 C38.01328854 123.27322613 38.01328854 123.27322613 41 125 C42.35502546 123.84712427 42.35502546 123.84712427 42.4375 120.75 C42.9313074 117.45795068 43.52042112 114.95915776 45 112 C48.11877956 110.44061022 50.57255771 110.6392166 54 111 C57.02320685 114.7754932 57.44778151 118.06607388 57.6875 122.8125 C57.75324219 123.97394531 57.81898438 125.13539063 57.88671875 126.33203125 C57.94279297 127.65267578 57.94279297 127.65267578 58 129 C63.36341661 126.68346048 66.00211854 122.41592353 68.1875 117.125 C68.455625 116.42375 68.72375 115.7225 69 115 C69.66 114.67 70.32 114.34 71 114 C71.4125 113.175 71.825 112.35 72.25 111.5 C74 109 74 109 77.1875 108.1875 C78.115625 108.125625 79.04375 108.06375 80 108 C83.19034612 111.46776752 83.78542409 114.33178188 84 119 C83.13795639 121.75293219 81.81710795 124.13546627 80.375 126.625 C79.85873047 127.58792969 79.85873047 127.58792969 79.33203125 128.5703125 C77.06908352 132.64528849 74.7280279 136.10652327 71 139 C66.56582198 139.64979162 62.50857874 139.227706 58 139 C58 147.25 58 155.5 58 164 C62.73975292 165.4371047 62.73975292 165.4371047 65.9375 163.75 C68.8258301 161.62022124 70.08946298 159.1777058 71.6875 156 C74.03064727 151.35686869 76.83278674 147.76813794 80.4375 144.0625 C90.63494129 133.52312927 94.41173645 123.83912767 94.5234375 109.40991211 C94.39979317 102.67184793 93.71220055 98.06879458 89.0546875 92.90625 C88.37664062 92.2771875 87.69859375 91.648125 87 91 C86.36320312 90.3296875 85.72640625 89.659375 85.0703125 88.96875 C81.01775915 84.99757323 77.29534684 83.02632686 71.78515625 81.703125 C71.19605469 81.47109375 70.60695313 81.2390625 70 81 C69.67 80.01 69.34 79.02 69 78 C68.21625 77.54625 67.4325 77.0925 66.625 76.625 C63.53415525 74.71161992 62.39997171 73.34437685 61 70 C61.18266917 65.61593998 62.38814778 62.51595491 65 59 C65.99 58.67 66.98 58.34 68 58 C68.495 57.01 68.495 57.01 69 56 C70.3303125 55.4121875 70.3303125 55.4121875 71.6875 54.8125 C77.3723093 51.70194397 81.48781265 46.80712718 83.52734375 40.56640625 C84.98127731 32.67190749 85.70960255 22.6571084 81.34375 15.609375 C77.97395554 11.57345838 73.02683929 6.54567767 67.73597717 5.59184265 C60.69010404 5.04316715 53.68747953 4.83935043 46.62109375 4.83203125 C45.48720718 4.82870285 44.35332062 4.82537445 43.18507385 4.82194519 C40.8111308 4.81691897 38.43718079 4.81453552 36.06323242 4.81469727 C32.41638919 4.81248721 28.76983767 4.79422255 25.12304688 4.77539062 C22.80989686 4.77246057 20.49674542 4.77047318 18.18359375 4.76953125 C17.0909874 4.76234573 15.99838104 4.75516022 14.87266541 4.74775696 C13.86724197 4.75083359 12.86181854 4.75391022 11.82592773 4.75708008 C10.9397728 4.75565506 10.05361786 4.75423004 9.14060974 4.75276184 C6.785659 4.80013679 6.785659 4.80013679 5 7 Z " fill="#4D94E2" transform="translate(99,68)"/>
<path d="M0 0 C3.81449408 1.36231931 4.84614915 3.37979829 6.625 6.9375 C6.5504338 10.06928031 6.02412574 11.44258408 4.0625 13.875 C2.13900502 16.63479715 2.40092449 18.65105915 2.625 21.9375 C3.285 22.2675 3.945 22.5975 4.625 22.9375 C5.285 21.9475 5.945 20.9575 6.625 19.9375 C7.285 19.9375 7.945 19.9375 8.625 19.9375 C8.5425 18.803125 8.46 17.66875 8.375 16.5 C8.38382033 11.55179688 9.70548834 6.96960493 12.625 2.9375 C18.95766648 -0.68116656 28.68441343 -0.91712586 35.625 0.9375 C41.41623738 4.44747773 44.95243199 10.42864798 48.625 15.9375 C49.34267792 19.28666363 49.06074386 21.22549201 47.26953125 24.15234375 C45.48446506 26.52061038 43.61600648 28.7401087 41.625 30.9375 C41.13515625 31.48277344 40.6453125 32.02804688 40.140625 32.58984375 C36.68054663 35.94300959 33.28165406 36.86976922 28.6171875 37.12890625 C26.625 36.9375 26.625 36.9375 24.5625 35.4375 C23.29935959 32.06912558 23.23578703 29.50528551 23.625 25.9375 C25 24.1875 25 24.1875 26.625 22.9375 C28.7769437 19.70958445 28.82586443 18.65349191 28.625 14.9375 C26.975 14.9375 25.325 14.9375 23.625 14.9375 C23.439375 16.484375 23.439375 16.484375 23.25 18.0625 C22.6849116 21.56604806 21.74208554 24.58624337 20.625 27.9375 C20.625 29.2575 20.625 30.5775 20.625 31.9375 C19.635 31.9375 18.645 31.9375 17.625 31.9375 C17.521875 32.55625 17.41875 33.175 17.3125 33.8125 C16.625 35.9375 16.625 35.9375 13.625 37.9375 C11.4609375 37.9140625 11.4609375 37.9140625 9 37.5625 C5.53189625 37.09874194 2.47761047 36.99854906 -1 37.3125 C-4.85474489 37.36017352 -6.6867339 36.34556457 -9.625 33.875 C-10.91048168 32.59723121 -12.16235579 31.28458955 -13.375 29.9375 C-13.90609375 29.35097656 -14.4371875 28.76445313 -14.984375 28.16015625 C-17.33627835 25.24670295 -18.31860059 23.21949703 -19.0625 19.5 C-17.4930133 11.36720529 -10.68014324 5.83676671 -4.375 0.9375 C-2.375 -0.0625 -2.375 -0.0625 0 0 Z " fill="#4992E1" transform="translate(129.375,83.0625)"/>
<path d="M0 0 C1.875 0.25 1.875 0.25 4 1 C6.19771457 4.28673707 6.24558583 7.1008193 6.23046875 10.98828125 C6.22889771 12.7508728 6.22889771 12.7508728 6.22729492 14.54907227 C6.2141626 15.79100342 6.20103027 17.03293457 6.1875 18.3125 C6.17887939 19.57312256 6.17025879 20.83374512 6.16137695 22.13256836 C5.92380667 46.87973824 5.92380667 46.87973824 3.45703125 49.87109375 C2.97621094 50.24363281 2.49539062 50.61617187 2 51 C-1.875 49.125 -1.875 49.125 -3 48 C-3.10827601 46.64020909 -3.14899567 45.27492962 -3.16113281 43.91088867 C-3.17074036 43.04296188 -3.1803479 42.1750351 -3.19024658 41.2808075 C-3.19449646 40.33607071 -3.19874634 39.39133392 -3.203125 38.41796875 C-3.20882507 37.45224442 -3.21452515 36.48652008 -3.22039795 35.49153137 C-3.22986473 33.44285178 -3.23638856 31.39415684 -3.24023438 29.34545898 C-3.24992685 26.21115458 -3.28092912 23.07750932 -3.3125 19.94335938 C-3.31903103 17.95573307 -3.32428111 15.96810207 -3.328125 13.98046875 C-3.3404718 13.04180466 -3.3528186 12.10314056 -3.36553955 11.1360321 C-3.34315613 4.59214819 -3.34315613 4.59214819 -1.47949219 1.3762207 C-0.99125977 0.92206787 -0.50302734 0.46791504 0 0 Z " fill="#F5F9FD" transform="translate(148,179)"/>
<path d="M0 0 C0.88026855 -0.0033284 1.76053711 -0.0066568 2.66748047 -0.01008606 C4.53026811 -0.01515292 6.39306485 -0.01749446 8.25585938 -0.01733398 C11.11343226 -0.01952239 13.97062037 -0.03768578 16.828125 -0.05664062 C18.63541534 -0.05957415 20.44270752 -0.06155922 22.25 -0.0625 C23.53753174 -0.07327827 23.53753174 -0.07327827 24.85107422 -0.08427429 C30.89617421 -0.06085704 30.89617421 -0.06085704 33.125 2.16796875 C32.75 4.29296875 32.75 4.29296875 32.125 6.16796875 C27.98874843 7.32083734 23.97788691 7.32986861 19.7109375 7.3359375 C18.90008698 7.3392659 18.08923645 7.3425943 17.2538147 7.34602356 C15.54421556 7.35107607 13.8346066 7.3534324 12.125 7.35327148 C9.50244122 7.35546671 6.88029738 7.37366361 4.2578125 7.39257812 C2.59635561 7.39551059 0.93489671 7.39749637 -0.7265625 7.3984375 C-1.51302155 7.40562302 -2.29948059 7.41280853 -3.10977173 7.42021179 C-8.64616398 7.39680477 -8.64616398 7.39680477 -10.875 5.16796875 C-10.875 3.84796875 -10.875 2.52796875 -10.875 1.16796875 C-7.50860724 -0.51522763 -3.70259311 0.00480027 0 0 Z " fill="#FBFCFE" transform="translate(137.875,251.83203125)"/>
<path d="M0 0 C3.44370946 0.58835577 5.16493074 1.76126993 7.671875 4.16015625 C8.33574219 4.78857422 8.99960938 5.41699219 9.68359375 6.06445312 C10.36550781 6.72380859 11.04742187 7.38316406 11.75 8.0625 C12.44738281 8.72572266 13.14476562 9.38894531 13.86328125 10.07226562 C15.58184749 11.70843485 17.29367649 13.35108255 19 15 C17.26790002 18.75460899 15.20001517 20.83963441 12.0625 23.5625 C8.58837893 26.55772054 8.58837893 26.55772054 5.3515625 29.796875 C4.90554687 30.19390625 4.45953125 30.5909375 4 31 C1.3125 30.6875 1.3125 30.6875 -1 30 C-0.51286902 25.58489226 0.85053197 23.69553355 4.0625 20.6875 C4.79597656 19.99011719 5.52945313 19.29273437 6.28515625 18.57421875 C6.85105469 18.05472656 7.41695312 17.53523438 8 17 C6.20289365 12.9040571 3.48040754 10.23976953 0.36328125 7.09765625 C-1 5 -1 5 -0.70703125 2.24609375 C-0.35705078 1.13427734 -0.35705078 1.13427734 0 0 Z " fill="#F5F9FD" transform="translate(157,86)"/>
<path d="M0 0 C0.66 0.33 1.32 0.66 2 1 C2 4.4810594 1.41017908 6.51611009 -0.84765625 9.1796875 C-2.8570482 11.17135994 -4.89457519 13.11039323 -7 15 C-5.20289365 19.0959429 -2.48040754 21.76023047 0.63671875 24.90234375 C2 27 2 27 1.70703125 29.75390625 C1.47371094 30.49511719 1.24039063 31.23632812 1 32 C-6.16043727 29.54499293 -11.78219332 24.22339199 -16 18 C-16 14 -16 14 -14.85424805 12.3684082 C-14.32871338 11.85109131 -13.80317871 11.33377441 -13.26171875 10.80078125 C-12.68873047 10.23166016 -12.11574219 9.66253906 -11.52539062 9.07617188 C-10.91888672 8.49416016 -10.31238281 7.91214844 -9.6875 7.3125 C-9.09259766 6.71888672 -8.49769531 6.12527344 -7.88476562 5.51367188 C-3.42201001 1.14067 -3.42201001 1.14067 0 0 Z " fill="#F9FBFE" transform="translate(130,86)"/>
<path d="M0 0 C2.96458878 0.24379842 4.52717544 0.51126308 6.625 2.6796875 C16.4653198 18.39065264 16.4653198 18.39065264 16 26 C14.68 26.33 13.36 26.66 12 27 C6.61885047 20.47560259 -0.47496783 11.76739886 -1.2578125 3.16796875 C-1 1 -1 1 0 0 Z " fill="#F7FAFD" transform="translate(120,179)"/>
<path d="M0 0 C1.2065625 0.0309375 1.2065625 0.0309375 2.4375 0.0625 C3.07422746 5.96159269 0.95494619 9.69048117 -1.8125 14.6875 C-2.20824219 15.43773437 -2.60398438 16.18796875 -3.01171875 16.9609375 C-5.13042006 20.87879829 -7.15184489 24.10555589 -10.5625 27.0625 C-11.8825 26.4025 -13.2025 25.7425 -14.5625 25.0625 C-14.19740633 18.3006609 -12.3031233 14.19956778 -8.5625 8.625 C-7.86640625 7.54702148 -7.86640625 7.54702148 -7.15625 6.44726562 C-3.01543961 0.07354731 -3.01543961 0.07354731 0 0 Z " fill="#F6FAFD" transform="translate(177.5625,178.9375)"/>
<path d="M0 0 C1.65 0.33 3.3 0.66 5 1 C4.66252263 7.18708519 3.34670295 12.82518577 1.625 18.75 C1.41593018 19.48275146 1.20686035 20.21550293 0.99145508 20.97045898 C-0.20305837 24.96326033 -1.36216828 28.69946179 -4 32 C-5.32 32 -6.64 32 -8 32 C-8.41597055 25.52532802 -6.88422274 19.95228298 -5.125 13.75 C-4.85558594 12.75742188 -4.58617187 11.76484375 -4.30859375 10.7421875 C-2.27083333 3.40625 -2.27083333 3.40625 0 0 Z " fill="#F4F8FD" transform="translate(146,86)"/>
<path d="M0 0 C0.85464844 -0.01611328 1.70929688 -0.03222656 2.58984375 -0.04882812 C8.87486595 -0.05373064 8.87486595 -0.05373064 12.09375 1.83203125 C12.78984375 2.56486328 12.78984375 2.56486328 13.5 3.3125 C13.125 5.25 13.125 5.25 12.5 7.3125 C10.01831386 8.55334307 8.33573801 8.44183103 5.5625 8.4453125 C4.58539063 8.44660156 3.60828125 8.44789063 2.6015625 8.44921875 C1.57804688 8.44535156 0.55453125 8.44148438 -0.5 8.4375 C-1.52351562 8.44136719 -2.54703125 8.44523437 -3.6015625 8.44921875 C-4.57867187 8.44792969 -5.55578125 8.44664062 -6.5625 8.4453125 C-7.46097656 8.44418457 -8.35945312 8.44305664 -9.28515625 8.44189453 C-11.5 8.3125 -11.5 8.3125 -13.5 7.3125 C-13.5 5.6625 -13.5 4.0125 -13.5 2.3125 C-9.01048168 -0.24177154 -5.05363331 -0.01905593 0 0 Z " fill="#F3F7FD" transform="translate(149.5,265.6875)"/>
<path d="M0 0 C2.5625 0.875 2.5625 0.875 4.375 3.4375 C4.766875 4.241875 5.15875 5.04625 5.5625 5.875 C4.5725 6.205 3.5825 6.535 2.5625 6.875 C1.9025 5.885 1.2425 4.895 0.5625 3.875 C-3.6511147 6.13914633 -6.82938034 9.02530059 -10.125 12.4375 C-10.61033203 12.93185547 -11.09566406 13.42621094 -11.59570312 13.93554688 C-12.88021874 15.24486693 -14.15918155 16.55962884 -15.4375 17.875 C-16.0975 18.535 -16.7575 19.195 -17.4375 19.875 C-18.08984375 18.11328125 -18.08984375 18.11328125 -18.4375 15.875 C-15.52733145 9.96942784 -7.11315518 -0.36477719 0 0 Z " fill="#559AE3" transform="translate(129.4375,83.125)"/>
<path d="M0 0 C1.65 0 3.3 0 5 0 C5.75 2.125 5.75 2.125 6 5 C4.1875 8.3125 4.1875 8.3125 2 11 C1.34 11 0.68 11 0 11 C-0.33 12.32 -0.66 13.64 -1 15 C-1.99 14.34 -2.98 13.68 -4 13 C-3.71125 12.154375 -3.4225 11.30875 -3.125 10.4375 C-1.99227296 6.97638959 -0.98175684 3.50627443 0 0 Z " fill="#F1F6FC" transform="translate(153,98)"/>
<path d="M0 0 C1.875 0.25 1.875 0.25 4 1 C5.25 3.0625 5.25 3.0625 6 5 C5.01 6.485 5.01 6.485 4 8 C4 6.68 4 5.36 4 4 C2.35 4 0.7 4 -1 4 C-0.67 2.68 -0.34 1.36 0 0 Z " fill="#62A1E5" transform="translate(176,175)"/>
<path d="M0 0 C0.598125 0.20625 1.19625 0.4125 1.8125 0.625 C0.8225 0.955 -0.1675 1.285 -1.1875 1.625 C-0.5275 2.285 0.1325 2.945 0.8125 3.625 C-0.1775 3.955 -1.1675 4.285 -2.1875 4.625 C-3.1775 6.11 -3.1775 6.11 -4.1875 7.625 C-4.8475 7.625 -5.5075 7.625 -6.1875 7.625 C-5.875 4.75 -5.875 4.75 -5.1875 1.625 C-2.1875 -0.375 -2.1875 -0.375 0 0 Z " fill="#70A9E7" transform="translate(122.1875,175.375)"/>
</svg>
